<?xml version="1.0" encoding="UTF-8" standalone="no"?>
<svg
   xmlns:dc="http://purl.org/dc/elements/1.1/"
   xmlns:cc="http://creativecommons.org/ns#"
   xmlns:rdf="http://www.w3.org/1999/02/22-rdf-syntax-ns#"
   xmlns:svg="http://www.w3.org/2000/svg"
   xmlns="http://www.w3.org/2000/svg"
   xmlns:sodipodi="http://sodipodi.sourceforge.net/DTD/sodipodi-0.dtd"
   xmlns:inkscape="http://www.inkscape.org/namespaces/inkscape"
   id="Ebene_1"
   data-name="Ebene 1"
   viewBox="0 0 500 500"
   version="1.1"
   sodipodi:docname="mask-icon.svg"
   inkscape:version="0.92.2 5c3e80d, 2017-08-06">
  <metadata
     id="metadata53">
    <rdf:RDF>
      <cc:Work
         rdf:about="">
        <dc:format>image/svg+xml</dc:format>
        <dc:type
           rdf:resource="http://purl.org/dc/dcmitype/StillImage" />
        <dc:title></dc:title>
      </cc:Work>
    </rdf:RDF>
  </metadata>
  <sodipodi:namedview
     pagecolor="#ffffff"
     bordercolor="#666666"
     borderopacity="1"
     objecttolerance="10"
     gridtolerance="10"
     guidetolerance="10"
     inkscape:pageopacity="0"
     inkscape:pageshadow="2"
     inkscape:window-width="1036"
     inkscape:window-height="773"
     id="namedview51"
     showgrid="false"
     inkscape:zoom="0.944"
     inkscape:cx="219.46806"
     inkscape:cy="232.06368"
     inkscape:window-x="0"
     inkscape:window-y="0"
     inkscape:window-maximized="0"
     inkscape:current-layer="Ebene_1" />
  <defs
     id="defs4">
    <style
       id="style2">.cls-1{fill:#ffc000;}.cls-2{fill:#fff;}</style>
  </defs>
  <path
     d="M 250,493.57627 C 115.11279,493.57627 5.3644068,384.31492 5.3644068,250 5.3644068,115.68508 115.11279,6.4237288 250,6.4237288 384.88721,6.4237288 494.63559,115.68508 494.63559,250 494.63559,384.31492 384.88721,493.57627 250,493.57627 Z M 250,22.713261 C 124.12818,22.713261 21.724782,124.67323 21.724782,250 21.724782,375.32677 124.12818,477.28674 250,477.28674 375.87182,477.28674 478.27522,375.32677 478.27522,250 478.27522,124.67323 375.87182,22.713261 250,22.713261 Z"
     id="path8"
     inkscape:connector-curvature="0"
     style="stroke-width:1.18210828" />
  <path
     d="m 243.87523,291.76773 c -47.04349,0 -120.90804,-3.86891 -121.64254,-3.9043 h -0.23693 C 104.35593,285.90538 91.549585,272.97756 91.549585,257.13625 v -14.69714 c 0,-16.80853 11.135955,-27.40086 30.540945,-29.06402 0.94774,0 80.29734,-3.91609 116.27595,-3.91609 35.97861,0 122.15194,3.85712 122.99306,3.9043 l 0.53311,0.059 c 20.02102,3.53863 30.1737,12.975 30.1737,27.90806 v 15.74694 c 0,16.19516 -12.52203,28.8399 -30.45802,30.72717 h -0.0592 c -0.41463,0.0826 -44.09364,3.96328 -117.67386,3.96328 z M 122.78949,279.73636 c 3.41187,0.17693 75.144,3.8925 121.08574,3.8925 72.33631,0 115.54145,-3.76275 116.92752,-3.8925 13.82516,-1.42725 23.06564,-10.55694 23.06564,-22.65908 v -15.74694 c 0,-13.81249 -12.32063,-17.88192 -23.17226,-19.85176 -5.40213,-0.23591 -87.59495,-3.88071 -122.37704,-3.88071 -35.77721,0 -114.91357,3.85711 -115.71915,3.8925 -10.36591,0.89646 -22.91163,5.26078 -22.91163,20.94874 v 14.63817 c 0.04739,11.79546 9.51295,21.10208 23.10118,22.65908 z"
     id="path12"
     inkscape:connector-curvature="0"
     style="stroke-width:1.18210828" />
  <path
     d="m 353.8487,221.26626 h -0.62788 c -0.58049,0 -58.53484,-4.1638 -111.60833,-3.89251 -53.07348,0.2713 -110.64873,3.85712 -111.22923,3.89251 h -0.61603 l -0.59233,-0.14155 c -12.0837,-2.90168 -18.20847,-13.16373 -18.20847,-30.53845 v -9.29482 c 0,-14.8269 19.90255,-28.30911 37.00927,-29.90149 0.69896,0 58.58223,-3.9161 97.53438,-3.9161 h 0.0829 c 38.98768,0 91.11343,4.4351 91.63468,4.47048 18.12555,0.93184 35.39812,17.31574 35.44551,29.32352 v 9.31841 c 0,17.37472 -6.12478,27.63677 -18.20847,30.53845 z M 245.51008,155.63631 c -38.67967,0 -96.29047,3.85712 -96.85911,3.8925 -14.21611,1.38007 -29.49843,12.58576 -29.49843,21.78622 v 9.29482 c 0,17.06804 6.32617,21.10208 11.37289,22.48215 6.51571,-0.40104 60.75018,-3.6212 111.03968,-3.8807 50.28949,-0.2595 104.9386,3.40888 111.57278,3.86891 5.04672,-1.36828 11.36105,-5.42592 11.36105,-22.41138 v -9.29482 c 0,-8.69326 -15.64957,-20.59488 -27.82804,-21.23183 -0.66342,-0.059 -52.44561,-4.44689 -91.07789,-4.45869 z"
     id="path16"
     inkscape:connector-curvature="0"
     style="stroke-width:1.18210828" />
  <path
     d="m 333.59074,158.91545 h -0.26063 c -0.46202,0 -47.38704,-2.94887 -79.72869,-3.33812 -32.34166,-0.38925 -87.0263,3.30273 -87.5831,3.33812 h -0.27248 c -6.04184,0 -16.17082,-3.00784 -16.17082,-23.1427 v -9.62509 c 0,-13.22271 16.75131,-19.52149 29.35627,-23.10731 l 1.32683,-0.37745 c 8.65999,-2.50064 28.92979,-8.374782 72.08754,-8.693259 23.69352,-0.141546 60.19339,5.63823 72.26523,7.891159 14.29904,2.67757 25.11514,13.11656 25.16252,24.27506 v 9.69587 c -0.0118,20.07588 -10.14082,23.08372 -16.18267,23.08372 z m -84.87019,-11.53596 h 4.98749 c 31.71377,0.37745 77.21718,3.17298 80.01301,3.34991 2.27458,0 7.86625,-0.28309 7.86625,-15.00383 v -9.57791 c 0,-7.07728 -8.29273,-14.37867 -18.49279,-16.27774 -11.84676,-2.21754 -47.57659,-7.85577 -70.68962,-7.76141 -42.02046,0.31848 -61.53207,5.95671 -69.89588,8.37478 l -1.36238,0.38925 c -15.76804,4.48227 -23.43289,9.43637 -23.43289,15.27512 v 9.68407 c 0,14.69715 5.57982,14.99203 7.8544,15.00383 3.02093,-0.2595 51.07138,-3.45607 83.15241,-3.45607 z"
     id="path20"
     inkscape:connector-curvature="0"
     style="stroke-width:1.18210828" />
  <path
     d="m 251.18468,353.05694 c -38.95215,0 -96.85911,-3.86891 -97.4396,-3.90429 -17.23704,-1.66316 -37.12775,-15.0746 -37.12775,-29.9015 v -9.30662 c 0,-10.08512 3.94497,-20.45333 9.82096,-25.80847 a 12.747114,12.691916 0 0 1 9.7025,-3.71557 c 0.39094,0 57.97804,2.51244 111.12261,2.77194 53.14456,0.2595 111.02783,-3.84532 111.59648,-3.88071 h 0.63972 l 0.61603,0.14155 c 12.0837,2.90168 18.20847,13.17553 18.20847,30.53845 v 9.29482 c 0,12.03137 -17.31996,28.41526 -35.54028,29.3589 -0.39094,0 -52.51668,4.45869 -91.49252,4.45869 z M 135.33521,288.53577 a 5.2836549,5.2607756 0 0 0 -3.37633,1.61598 c -3.55402,3.24375 -7.10805,11.07594 -7.10805,19.79278 v 9.29483 c 0,9.21225 15.22308,20.40614 29.6169,21.79801 0.46202,0 58.04912,3.88071 96.77618,3.88071 v 0 c 38.63228,0 90.41447,-4.39971 90.92388,-4.44689 12.33248,-0.63696 27.93466,-12.53858 27.9702,-21.23183 v -9.28303 c 0,-17.04444 -6.30247,-21.09029 -11.34919,-22.47035 -6.64604,0.46002 -61.29514,4.16379 -111.57279,3.86891 -53.31042,-0.2713 -111.03968,-2.77194 -111.62017,-2.79553 z"
     id="path24"
     inkscape:connector-curvature="0"
     style="stroke-width:1.18210828" />
  <path
     d="m 252.61813,409.95825 h -1.03066 c -46.02467,-0.34207 -65.29935,-5.89773 -72.54956,-7.99732 -14.37012,-4.14021 -29.6169,-15.19256 -29.6169,-27.53061 v -9.68407 c 0,-20.13486 10.12898,-23.1427 16.17083,-23.1427 h 0.29616 c 0.54496,0 55.27699,3.69198 87.5831,3.33812 32.30612,-0.35387 79.26667,-3.31453 79.7287,-3.33812 h 0.26062 c 6.04185,0 16.17083,3.00784 16.17083,23.1427 v 9.68407 c 0,10.84003 -10.81609,24.9474 -25.16252,27.62497 -16.56177,3.09041 -50.32503,7.90296 -71.8506,7.90296 z m -87.204,-60.21583 c -2.27457,0 -7.8544,0.30668 -7.8544,15.00383 v 9.68407 c 0,6.97112 10.87533,16.00644 23.75276,19.71021 6.95404,2.00523 25.44684,7.33678 70.33421,7.66705 20.86214,0.17694 54.79126,-4.71818 71.25826,-7.74961 10.20006,-1.91087 18.45725,-12.31447 18.49279,-19.65124 v -9.66048 c 0,-14.72074 -5.59167,-14.99204 -7.86625,-15.00383 -2.79583,0.17693 -48.29924,2.97246 -80.02486,3.34991 -31.72562,0.37745 -84.94127,-3.13759 -88.09251,-3.34991 z"
     id="path28"
     inkscape:connector-curvature="0"
     style="stroke-width:1.18210828" />
  <path
     d="m 243.98185,291.76773 c -49.40099,0 -126.93804,-3.86891 -127.71992,-3.9043 h -0.22509 C 97.60328,285.91718 84.240135,272.98935 84.240135,257.13625 v -14.69714 c 0,-16.82033 11.621671,-27.41265 31.891475,-29.07581 0.98328,0 84.2897,-3.9043 122.02163,-3.9043 37.73193,0 128.25302,3.85712 129.12968,3.9043 h 0.50941 c 20.93323,3.53864 31.54793,12.97501 31.54793,27.91985 v 15.79413 c 0,16.20696 -13.09067,28.8399 -31.8204,30.72717 h -0.0592 c -0.3791,0.0826 -46.23791,3.96328 -123.47878,3.96328 z M 116.78318,279.73636 c 3.43556,0.16513 78.88758,3.8925 127.19867,3.8925 76.02065,0 121.40559,-3.77455 122.81536,-3.8925 14.6189,-1.47444 24.43986,-10.61592 24.43986,-22.6237 v -15.78232 c 0,-6.71162 -2.54705,-16.04183 -24.4991,-19.85176 -5.42581,-0.22412 -91.95455,-3.88071 -128.54919,-3.88071 -37.57792,0 -120.69479,3.85711 -121.53591,3.8925 -10.98195,0.89646 -24.238471,5.27257 -24.238471,20.94874 v 14.63817 c 0.02369,11.79546 10.010511,21.09028 24.368781,22.65908 z"
     id="path30"
     inkscape:connector-curvature="0"
     style="stroke-width:1.18210828" />
  <path
     d="m 359.42852,221.25446 h -0.60418 c -0.60419,0 -61.49653,-4.19918 -117.28293,-3.8925 -55.78639,0.30668 -116.21671,3.85711 -116.8209,3.8925 h -0.58049 l -0.58049,-0.12975 c -12.60495,-2.87809 -18.95482,-13.16373 -18.95482,-30.55024 v -9.29483 c 0,-14.83869 20.79107,-28.3091 38.67968,-29.90149 0.72265,0 61.49653,-3.91609 102.3797,-3.91609 h 0.0948 c 40.91871,0 95.63889,4.42329 96.18384,4.47048 16.05236,0.7785 36.99744,15.14537 37.05667,29.32351 v 9.31842 c 0,17.3983 -6.39725,27.67215 -18.95482,30.55024 z M 245.69963,155.60093 c -40.62254,0 -101.12395,3.85711 -101.73998,3.8925 -15.08092,1.39186 -31.14513,12.58575 -31.14513,21.78621 v 9.29483 c 0,17.09162 6.75265,21.11387 12.10739,22.48215 6.53941,-0.38925 63.67633,-3.62121 116.6432,-3.88071 52.96686,-0.2595 110.54211,3.43248 117.19999,3.88071 5.35474,-1.38007 12.09555,-5.40233 12.09555,-22.48215 v -9.29483 c 0,-8.68146 -16.58547,-20.59487 -29.41551,-21.23183 -0.67527,-0.059 -55.07559,-4.44688 -95.65074,-4.45868 z"
     id="path32"
     inkscape:connector-curvature="0"
     style="stroke-width:1.18210828" />
  <path
     d="m 337.98589,158.91545 h -0.23694 c -0.49756,0 -49.75639,-2.94887 -83.75659,-3.33812 -34.0002,-0.38925 -91.42145,3.30273 -91.99009,3.33812 h -0.27248 c -6.26693,0 -16.77501,-3.00784 -16.77501,-23.1427 v -9.62509 c 0,-12.76269 14.52413,-19.20301 30.69495,-25.2069 11.5269,-4.281754 32.05734,-10.002553 77.00394,-10.32103 24.5228,-0.212318 62.04149,3.538638 76.57746,9.224051 11.74014,4.564839 25.47053,14.154549 25.51792,26.292079 v 9.69587 c 0.0118,20.07588 -10.49623,23.08372 -16.76316,23.08372 z m -89.17057,-11.53596 h 5.22443 c 33.34862,0.37745 81.23323,3.18477 84.01722,3.34991 2.78399,0.16514 8.48228,-0.23591 8.48228,-15.00383 v -9.57791 c 0,-6.36955 -8.38751,-14.08378 -20.3172,-18.7194 -13.28021,-5.15461 -49.75639,-8.787617 -73.54468,-8.657866 -43.66716,0.306682 -63.27355,5.732596 -74.20811,9.802026 -15.67326,5.81516 -25.37576,10.78105 -25.37576,17.57524 v 9.68407 c 0,14.75612 5.81676,14.99203 8.45859,15.00383 3.04462,-0.24771 53.5829,-3.45607 87.26323,-3.45607 z"
     id="path34"
     inkscape:connector-curvature="0"
     style="stroke-width:1.18210828" />
  <path
     d="m 251.59931,353.05694 c -40.88317,0 -101.68074,-3.86891 -102.29677,-3.90429 -17.99523,-1.65137 -38.79814,-15.0746 -38.79814,-29.91329 v -9.29483 c 0,-9.83741 3.99236,-20.05228 9.92759,-25.52537 a 13.552693,13.494007 0 0 1 10.33037,-3.99867 c 0.42648,0 60.90419,2.51244 116.71428,2.77194 55.81009,0.2595 116.61951,-3.84532 117.22369,-3.8925 h 0.61603 l 0.58049,0.12975 c 12.6168,2.87809 18.95482,13.16373 18.95482,30.55024 v 9.29482 c -0.0592,14.15456 -21.00431,28.56861 -37.18698,29.35891 -0.41464,0 -55.13482,4.45868 -96.05353,4.45868 z M 129.93309,288.53577 a 6.1840087,6.1572307 0 0 0 -3.96867,1.88728 c -4.28852,3.91609 -7.28575,11.9488 -7.28575,19.52148 v 9.29483 c 0,9.20046 16.07605,20.39435 31.2636,21.79801 0.49756,0 61.04635,3.88071 101.65704,3.88071 h 0.0592 c 40.587,0 94.97547,-4.39971 95.52042,-4.44689 13.03144,-0.63696 29.51028,-12.55037 29.54582,-21.23183 v -9.28303 c 0,-17.07983 -6.74081,-21.10208 -12.09554,-22.47035 -6.64603,0.43643 -64.20944,4.12841 -117.18815,3.86891 -55.96409,-0.2713 -116.58396,-2.77194 -117.2,-2.79553 z"
     id="path36"
     inkscape:connector-curvature="0"
     style="stroke-width:1.18210828" />
  <path
     d="m 253.76727,413.30816 h -1.87179 c -50.13549,-0.35387 -69.89588,-7.85578 -76.45899,-10.32103 -14.14503,-5.35514 -30.67126,-16.05362 -30.67126,-28.54502 v -9.68407 c 0,-20.13485 10.50808,-23.14269 16.77501,-23.14269 h 0.26063 c 0.58049,0 58.04913,3.71557 92.00194,3.33811 33.95281,-0.37745 83.25903,-3.31452 83.74475,-3.33811 h 0.24878 c 6.26693,0 16.77501,3.00784 16.77501,23.14269 v 9.68407 c 0,10.73387 -9.65511,25.18331 -25.64824,30.80975 -15.19939,5.34334 -52.647,8.0563 -75.15584,8.0563 z m -92.40473,-63.56574 c -2.64183,0 -8.47043,0.2477 -8.47043,15.00383 v 9.68407 c 0,6.45212 10.92271,15.45205 25.4113,20.93694 6.16031,2.35909 24.87819,9.43637 73.60392,9.79023 24.40432,0.20053 60.91604,-2.90168 74.24364,-7.59627 13.12621,-4.62382 20.13949,-16.41928 20.19873,-23.15449 v -9.66048 c 0,-14.76792 -5.84045,-14.99204 -8.48228,-15.00383 -2.64183,-0.0118 -50.66859,2.97246 -84.01722,3.34991 -33.34863,0.37745 -89.28903,-3.14939 -92.44027,-3.34991 z"
     id="path38"
     inkscape:connector-curvature="0"
     style="stroke-width:1.18210828" />
  <path
     d="m 268.24401,318.30752 c 0,10.54514 0,20.05228 -19.16806,19.08505 -22.651,-1.10877 -19.16805,-8.53991 -19.16805,-19.08505 a 19.168058,19.085056 0 1 1 38.33611,0 z"
     id="path40"
     inkscape:connector-curvature="0"
     style="stroke-width:1.18210828" />
  <ellipse
     cx="89.28685"
     cy="138.55649"
     id="circle42"
     rx="10.899019"
     ry="10.851824"
     style="stroke-width:1.18210828" />
  <ellipse
     cx="394.63708"
     cy="119.30629"
     id="circle44"
     rx="10.899019"
     ry="10.851824"
     style="stroke-width:1.18210828" />
  <ellipse
     cx="429.28885"
     cy="198.06459"
     id="circle46"
     rx="17.201496"
     ry="17.12701"
     style="stroke-width:1.18210828" />
  <ellipse
     cx="421.45816"
     cy="291.76773"
     id="circle48"
     rx="15.554796"
     ry="15.48744"
     style="stroke-width:1.18210828" />
</svg>
