<svg id="Logos" xmlns="http://www.w3.org/2000/svg" viewBox="0 0 1290 340"><defs><style>.cls-1,.cls-2{fill:#fff;}.cls-2{font-size:107.94px;font-family:Roboto-Regular, Roboto;letter-spacing:0em;}.cls-3{letter-spacing:-0.02em;}.cls-4{letter-spacing:0.01em;}.cls-5{letter-spacing:-0.01em;}.cls-6{letter-spacing:-0.01em;}.cls-7{fill:#fcc414;}</style></defs><title>HiveMQ-CI-complete</title><path class="cls-1" d="M519,42.47V188.73a6.16,6.16,0,0,1-6.27,6L480,194.48c0-57.13,0-57.18,0-57.18a6.15,6.15,0,0,0-6.26-6H421.46a6.16,6.16,0,0,0-6.27,6L415,194.48c-31.16,0-32.56.28-32.56.28a6.15,6.15,0,0,1-6.26-6V42.47a6.15,6.15,0,0,1,6.26-6l32.56.19c0,55.24.18,56.44.18,56.44a6.16,6.16,0,0,0,6.27,6h52.26a6.15,6.15,0,0,0,6.26-6l-.09-56.52c36.52,0,32.83-.11,32.83-.11A6.16,6.16,0,0,1,519,42.47Z"/><path class="cls-1" d="M559.2,54.76h23.45a5.45,5.45,0,0,1,5.54,5.35V189.63a5.45,5.45,0,0,1-5.54,5.35H559.2a5.46,5.46,0,0,1-5.55-5.35V60.11A5.46,5.46,0,0,1,559.2,54.76Z"/><path class="cls-1" d="M752.41,61.86,705.39,193a5.54,5.54,0,0,1-5.25,3.6H664.29a5.54,5.54,0,0,1-5.24-3.59L611.86,61.86a5.38,5.38,0,0,1,5.24-7.1h23.71a5.53,5.53,0,0,1,5.26,3.65L677,147.09a5.61,5.61,0,0,0,10.52,0l30.71-88.66a5.54,5.54,0,0,1,5.26-3.66h23.72A5.39,5.39,0,0,1,752.41,61.86Z"/><path class="cls-1" d="M873.16,173.69v15.94a5.46,5.46,0,0,1-5.55,5.35h-86a5.45,5.45,0,0,1-5.54-5.35V60.11a5.45,5.45,0,0,1,5.54-5.35h85a5.46,5.46,0,0,1,5.55,5.35V76.05a5.46,5.46,0,0,1-5.55,5.35h-50.5a5.45,5.45,0,0,0-5.55,5.35s-.07-.08-.07,24.47c0,0-.7.1,51.74.1l0,26.19c-54.14,0-51.9.19-51.9.19,0,25.74.19,25.29.19,25.29a5.45,5.45,0,0,0,5.55,5.35h51.46A5.46,5.46,0,0,1,873.16,173.69Z"/><path class="cls-1" d="M1081.82,42.47V188.73a6.15,6.15,0,0,1-6.26,6h-26.47a6.16,6.16,0,0,1-6.27-6l-.37-92.92c0-5.93-35,43.92-35,43.92a6.34,6.34,0,0,1-5.16,2.6h-12.9a6.32,6.32,0,0,1-5.18-2.64s-34.72-50.17-34.72-44.22l.18,93.26a6.15,6.15,0,0,1-6.26,6H916.9a6.15,6.15,0,0,1-6.26-6V42.47a6.15,6.15,0,0,1,6.26-6h35.46a6.33,6.33,0,0,1,5.21,2.69L991,87.4a6.4,6.4,0,0,0,10.42,0l33.45-48.28a6.33,6.33,0,0,1,5.21-2.69h35.46A6.15,6.15,0,0,1,1081.82,42.47Z"/><path class="cls-1" d="M1268.5,152.78a69.55,69.55,0,0,1-16.53,24,5.84,5.84,0,0,0-.28,8.26l21.62,22.83c-39.5,0-41.69.28-41.69.28a6.37,6.37,0,0,1-4.76-2.11l-7.09-8a6.51,6.51,0,0,0-6.28-1.93,104.48,104.48,0,0,1-22.24,2.23q-27.3,0-46.37-10.76a69.65,69.65,0,0,1-28.6-29.45q-9.54-18.71-9.53-42.3,0-23.19,9.53-41.78a71.1,71.1,0,0,1,28.6-29.56q19.06-11,46.37-11,26.87,0,45.94,11a71.68,71.68,0,0,1,28.71,29.66q9.63,18.7,9.64,41.68A94.35,94.35,0,0,1,1268.5,152.78Zm-110.4-.11q11.48,13.91,33.15,13.9h.44l-10.14-11.33a6,6,0,0,1,4.75-10h26.8a6.38,6.38,0,0,1,4.73,2.08h0c2.81,3.12,7,5.78,9.16,2.19a88.09,88.09,0,0,0,5.43-12.94,67,67,0,0,0,3.25-21.41,60.64,60.64,0,0,0-5.2-25.69,41.1,41.1,0,0,0-15.27-17.76q-10.08-6.47-24-6.47-21.45,0-33,14t-11.6,36.56Q1146.61,138.79,1158.1,152.67Z"/><text class="cls-2" transform="translate(366.05 293.75)">M<tspan class="cls-3" x="94.78" y="0">Q</tspan><tspan class="cls-4" x="167.26" y="0">T</tspan><tspan class="cls-5" x="233.04" y="0">T</tspan><tspan x="295.88" y="0" xml:space="preserve"> CLIE</tspan><tspan class="cls-6" x="544.34" y="0">N</tspan><tspan class="cls-5" x="620.3" y="0">T</tspan></text><circle class="cls-7" cx="169.56" cy="169.51" r="138.55"/><path class="cls-1" d="M169.47,332.47C79.88,332.47,7,259.59,7,170S79.88,7.53,169.47,7.53,331.94,80.41,331.94,170,259.05,332.47,169.47,332.47Zm0-311.21C87.46,21.26,20.73,88,20.73,170S87.46,318.74,169.47,318.74,318.21,252,318.21,170,251.48,21.26,169.47,21.26Z"/><path class="cls-1" d="M233.73,190.05s-25,2.28-68,2.28c-27.54,0-70.41-2.28-70.41-2.28-8.52-1-15.54-7-15.54-15.53V166c0-8.54,5.59-13.71,15.54-14.56,0,0,46.16-2.27,67.21-2.27s71.22,2.27,71.22,2.27c9,1.61,18.54,5.37,18.54,13.91v9.2C252.27,183.06,242.68,189.1,233.73,190.05Z"/><path class="cls-1" d="M230.27,150.25s-33.67-2.43-64.89-2.28-64.62,2.28-64.62,2.28C94,148.62,92,142.39,92,134.77v-5.41c0-7.11,10.22-14.17,19.31-15.05,0,0,33.61-2.28,56.37-2.28s52.93,2.6,52.93,2.6c8,.41,18.35,8.14,18.38,14.73v5.41C239,142.39,237,148.62,230.27,150.25Z"/><path class="cls-1" d="M218.72,114s-27.31-1.72-46.34-1.94-51,1.94-51,1.94c-5.41,0-7-5-7-11.1V97.22c0-5.7,7.5-8.94,15.3-11.18,4.58-1.3,15.87-5,41.93-5.19,12.83-.09,33,3,41.44,4.56,7.13,1.34,12.64,6.54,12.66,11.81v5.64C225.73,109,224.13,114,218.72,114Z"/><path class="cls-1" d="M233.52,189.81s-33.68,2.43-64.89,2.27S104,190.45,104,190.45c-4.45-.4-8.73,7.21-8.73,14.83v5.42c0,7.11,10.22,14.17,19.31,15.05,0,0,33.61,2.27,56.37,2.27s52.92-2.6,52.92-2.6c8-.41,18.36-8.14,18.39-14.72v-5.42C242.26,197.66,240.26,191.43,233.52,189.81Z"/><path class="cls-1" d="M218.61,226.09s-27.31,1.72-46.35,1.95-51-1.95-51-1.95c-5.4,0-7,5-7,11.1v5.64c0,5.7,7.61,11.48,15.48,13.76,4.57,1.32,15.37,4.37,41.43,4.56,12.82.09,33.3-3,41.76-4.56,7.13-1.34,12.63-8.48,12.66-13.76v-5.64C225.62,231.09,224,226.09,218.61,226.09Z"/><path d="M238.55,149.36l-.26,0c-.52,0-49.8-2.14-72.77-2.27h-2.11c-21.89,0-70.19,2.26-70.74,2.28-11.59.95-20.24,7-20.24,16.64v8.55c0,9.08,9.65,16.49,20.19,17.61h.11c.44,0,44.12,2.21,72.79,2.28h1.25c44.77,0,71.34-2.26,71.61-2.28h0c10.71-1.09,20.2-8.33,20.2-17.61v-9.2C258.6,156.78,250.52,151.4,238.55,149.36Zm-73.27,41.32c-27.34-.06-68.81-2.22-70.69-2.32-8.21-.94-13.94-6.6-13.94-13.77v-8.74c0-9.58,7.59-12.24,13.87-12.78.47,0,47.36-2.32,68.62-2.32h2.2c21.73.14,67.56,2.18,70.48,2.31,12.55,2.3,14,8,14,12.12v9.41c0,7.34-5.62,12.88-14,13.78-.75.06-26.39,2.31-69.37,2.31Z"/><path d="M223.56,112.56c-.32,0-32-2.6-55.75-2.61h-2.3c-23.61.13-56.68,2.25-57.08,2.27-10.25,1-22.17,8.63-22.17,17.13v5.41c0,10,3.63,15.87,10.79,17.51l.29.06h.3l2.35-.14.28.08.31.08.31,0c.33,0,33.71-2.12,64.5-2.27s64.4,2.24,64.73,2.26l.33,0,.31-.08.33-.09,2.28.14.31,0,.3-.07c7.16-1.64,10.79-7.53,10.79-17.51v-5.42C244.74,121.38,232.56,113,223.56,112.56Zm-58.2,33.33c-26.91.13-55.67,1.6-64.92,2.11-2.93-.95-6.34-3.61-6.34-13.23v-5.41c0-5.6,8.8-12.14,17.37-13,.33,0,31.69-2.12,54-2.26h2.22c22.41,0,52.42,2.56,52.79,2.59,7.19.37,16.39,7.47,16.41,12.65v5.41c0,9.55-3.36,12.24-6.28,13.21C221.4,147.4,192.36,145.76,165.36,145.89Z"/><path d="M216.1,81.17c-8.4-3.28-30.06-5.47-44.29-5.35-26,.18-37.9,3.51-44.56,6C118,85.27,109.65,89,109.64,96.22v5.64c0,10.9,5.14,13.18,9.44,13.18h.14l1-.07a8.88,8.88,0,0,0,1.15.07h.14c.32,0,32.07-2.16,50.8-1.94s46,1.92,46.24,1.94h.13c.4,0,.8,0,1.2-.07l1.23.07h.12c4.31,0,9.44-2.28,9.44-13.18V96.21C230.68,89.31,222.82,83.79,216.1,81.17Zm-43.47,27.76H167.9c-17.5.09-41.6,1.51-47.57,1.88-1.6-.31-3.85-1.79-3.85-8.94V96.22c0-3.52,4.52-6.52,13.8-9.18l.78-.22c4.85-1.41,16.19-4.71,40.59-4.89,13.41-.1,34.17,3.23,41,4.52,6,1.14,10.94,5.52,11,9.77v5.64c0,7.12-2.23,8.62-3.83,8.93C213.55,110.43,189.78,109.13,172.63,108.93Z"/><path d="M237.39,188.78l-.3-.07-.31,0-2.42.16-.35-.11-.32-.07-.32,0c-.31,0-29.73,2.12-58.7,2.27h-5.88l-3.25,0c-29.91-.23-61.12-1.59-61.35-1.6a5.81,5.81,0,0,0-1.5.07l-1.59-.07a7.63,7.63,0,0,0-5.77,2.25c-3.39,3.12-5.66,9-5.66,14.65v5.42c0,8.49,11.92,16.18,22.22,17.13.33,0,30.34,1.93,53.59,2.23,1.86,0,3.68,0,5.42,0h.32c23.71,0,55.43-2.58,55.68-2.6,9.06-.44,21.25-8.83,21.28-16.8v-5.42C248.18,196.31,244.55,190.42,237.39,188.78ZM165.55,226.9c-22-.29-50.52-2.21-50.77-2.22-8.63-.84-17.43-7.39-17.43-13v-5.42c0-5.15,2.13-9.81,4.25-11.74a3.87,3.87,0,0,1,1.5-.91c7.94.3,35.64,1.31,62.39,1.51l3.13,0h2.9c26.06,0,53.33-1.53,62.4-2.08,2.91,1,6.26,3.67,6.26,13.19v5.41c0,5.19-9.23,12.28-16.49,12.66-.3,0-30.24,2.58-52.64,2.59C169.28,226.94,167.43,226.92,165.55,226.9Z"/><path d="M221.16,225H221l-1.23.07c-.4,0-.8-.07-1.2-.07h-.13c-.27,0-27.47,1.72-46.24,2s-50.49-1.92-50.8-2h-.15a11.43,11.43,0,0,0-1.15.07l-1-.07H119c-4.31,0-9.44,2.29-9.44,13.19v5.64c0,7.12,9.48,13.26,17.6,16.35,3.76,1.43,15.21,5.79,44.23,6h1.08c13,0,34.7-1.57,43.48-4.68,9.15-3.23,14.65-11.52,14.68-17.67V238.2C230.6,227.3,225.47,225,221.16,225Zm-52.87,6.12h.42c1.31,0,2.58,0,3.8,0,17.16-.19,40.93-1.5,47.2-1.86,1.6.32,3.82,1.82,3.82,8.94v5.63c0,4.37-4.91,10.58-10.95,11.72-9.56,1.79-29.23,4.64-41.37,4.52-26.05-.19-36.81-3.31-40.86-4.48-7.71-2.23-14-7.5-14-11.76V238.2c0-7.16,2.25-8.64,3.85-8.94C126.26,229.63,150.77,231.06,168.29,231.13Z"/><path d="M180.84,210.15c0,6.14,0,11.66-11.12,11.12-13.13-.65-11.11-5-11.11-11.12a11.12,11.12,0,0,1,22.23,0Z"/><circle cx="77.08" cy="105.48" r="6.32"/><circle cx="254.12" cy="94.27" r="6.32"/><circle cx="274.21" cy="140.14" r="9.98"/><circle cx="269.66" cy="194.7" r="9.02"/></svg>