<?xml version="1.0" encoding="UTF-8" standalone="no"?>
<svg
   xmlns:dc="http://purl.org/dc/elements/1.1/"
   xmlns:cc="http://creativecommons.org/ns#"
   xmlns:rdf="http://www.w3.org/1999/02/22-rdf-syntax-ns#"
   xmlns:svg="http://www.w3.org/2000/svg"
   xmlns="http://www.w3.org/2000/svg"
   xmlns:sodipodi="http://sodipodi.sourceforge.net/DTD/sodipodi-0.dtd"
   xmlns:inkscape="http://www.inkscape.org/namespaces/inkscape"
   id="Ebene_1"
   data-name="Ebene 1"
   viewBox="0 0 1075.7 274.38"
   version="1.1"
   sodipodi:docname="hivemq-mqtt-client-banner-neg-2.svg"
   width="1075.7"
   height="274.38"
   inkscape:version="0.92.2 5c3e80d, 2017-08-06">
  <metadata
     id="metadata73">
    <rdf:RDF>
      <cc:Work
         rdf:about="">
        <dc:format>image/svg+xml</dc:format>
        <dc:type
           rdf:resource="http://purl.org/dc/dcmitype/StillImage" />
        <dc:title></dc:title>
      </cc:Work>
    </rdf:RDF>
  </metadata>
  <sodipodi:namedview
     pagecolor="#ffffff"
     bordercolor="#666666"
     borderopacity="1"
     objecttolerance="10"
     gridtolerance="10"
     guidetolerance="10"
     inkscape:pageopacity="0"
     inkscape:pageshadow="2"
     inkscape:window-width="1115"
     inkscape:window-height="834"
     id="namedview71"
     showgrid="false"
     fit-margin-top="10"
     fit-margin-bottom="10"
     fit-margin-right="10"
     fit-margin-left="10"
     inkscape:pagecheckerboard="false"
     inkscape:zoom="0.57341684"
     inkscape:cx="597.87953"
     inkscape:cy="19.952044"
     inkscape:window-x="0"
     inkscape:window-y="0"
     inkscape:window-maximized="0"
     inkscape:current-layer="Ebene_1" />
  <defs
     id="defs4">
    <style
       id="style2">.cls-1,.cls-3{fill:#fff;}.cls-2{fill:#ffc000;stroke:#fff;stroke-width:8.5px;}.cls-2,.cls-3,.cls-4{stroke-miterlimit:10;}.cls-3,.cls-4{stroke:#000;stroke-width:4.25px;}.cls-4{fill:none;}</style>
  </defs>
  <path
     class="cls-1"
     d="m 364.98001,115.31 h -7.26 V 74.420002 h -48.75 V 115.31 h -7.21 V 30.000002 h 7.21 v 38.32 h 48.75 v -38.32 h 7.26 z"
     id="path6"
     inkscape:connector-curvature="0"
     style="fill:#ffffff" />
  <path
     class="cls-1"
     d="m 396.65001,115.31 h -7.21 V 38.530002 h 7.21 z"
     id="path8"
     inkscape:connector-curvature="0"
     style="fill:#ffffff" />
  <path
     class="cls-1"
     d="m 446.72001,105.82 0.47,1.64 0.52,-1.64 26.84,-67.289998 h 7.91 l -31.76,76.779998 h -6.88 l -31.76,-76.779998 h 7.85 z"
     id="path10"
     inkscape:connector-curvature="0"
     style="fill:#ffffff" />
  <path
     class="cls-1"
     d="m 543.31001,78.510002 h -39.91 V 109.83 h 45.88 v 5.48 h -53.08 V 38.530002 h 52.79 v 5.49 h -45.59 v 29 h 39.91 z"
     id="path12"
     inkscape:connector-curvature="0"
     style="fill:#ffffff" />
  <path
     class="cls-1"
     d="m 575.21001,30.000002 31.47,75.299998 31.58,-75.299998 h 9.61 V 115.31 h -7.21 V 78.170002 l 0.59,-38.09 -31.76,75.229998 h -5.57 l -31.64,-74.939998 0.59,37.56 V 115.31 h -7.21 V 30.000002 Z"
     id="path14"
     inkscape:connector-curvature="0"
     style="fill:#ffffff" />
  <path
     class="cls-1"
     d="m 733.50001,77.290002 q 0,12.18 -4.31,21.24 a 30.48,30.48 0 0 1 -12.27,13.679998 l 15.53,13.53 -5,4.46 -17.41,-15.06 a 36,36 0 0 1 -9.78,1.35 31,31 0 0 1 -29.06,-18.429998 47.58,47.58 0 0 1 -4.2,-20.37 v -9.55 a 48.91,48.91 0 0 1 4.13,-20.66 31.82,31.82 0 0 1 58.24,-0.09 49,49 0 0 1 4.13,20.69 z m -7.21,-9.26 q 0,-15.4 -7,-24.14 -7,-8.74 -19.16,-8.73 -11.83,0 -18.9,8.76 -7.07,8.76 -7.06,24.46 v 8.91 q 0,15.17 7,24.049998 7,8.88 19.07,8.88 12.18,0 19.1,-8.73 6.92,-8.729998 6.91,-24.379998 z"
     id="path16"
     inkscape:connector-curvature="0"
     style="fill:#ffffff" />
  <path
     class="cls-1"
     d="m 321.56001,145 21.92,61.88 21.79,-61.88 h 23.09 v 85.31 h -17.64 v -23.32 l 1.76,-40.25 -23,63.57 h -12.1 l -23,-63.51 1.76,40.19 v 23.32 h -17.55 V 145 Z"
     id="path18"
     inkscape:connector-curvature="0"
     style="fill:#ffffff" />
  <path
     class="cls-1"
     d="m 472.47001,189.59 q 0,12 -3.87,20.77 a 35.54,35.54 0 0 1 -10.72,14.15 l 14.18,11.18 -11.19,9.9 -18.16,-14.59 a 38.63,38.63 0 0 1 -6.45,0.53 35.44,35.44 0 0 1 -18.92,-5.1 33.88,33.88 0 0 1 -12.9,-14.56 50,50 0 0 1 -4.62,-21.81 v -4.22 a 51.21,51.21 0 0 1 4.54,-22.15 33.77,33.77 0 0 1 12.83,-14.7 37.58,37.58 0 0 1 37.91,0 33.84,33.84 0 0 1 12.83,14.7 51.09,51.09 0 0 1 4.54,22.12 z m -17.81,-3.9 q 0,-13.43 -4.81,-20.4 -4.81,-6.97 -13.71,-7 -8.84,0 -13.65,6.89 -4.81,6.89 -4.86,20.18 v 4.16 q 0,13.07 4.8,20.28 4.8,7.21 13.83,7.2 8.85,0 13.59,-6.94 4.74,-6.94 4.81,-20.24 z"
     id="path20"
     inkscape:connector-curvature="0"
     style="fill:#ffffff" />
  <path
     class="cls-1"
     d="m 546.46001,159.24 h -26.13 v 71.07 h -17.58 v -71.07 h -25.78 V 145 h 69.49 z"
     id="path22"
     inkscape:connector-curvature="0"
     style="fill:#ffffff" />
  <path
     class="cls-1"
     d="m 625.26001,159.24 h -26.13 v 71.07 h -17.58 v -71.07 h -25.73 V 145 h 69.49 z"
     id="path24"
     inkscape:connector-curvature="0"
     style="fill:#ffffff" />
  <path
     class="cls-1"
     d="m 728.65001,201.9 q -1,13.77 -10.16,21.68 -9.16,7.91 -24.17,7.91 -16.41,0 -25.81,-11.05 -9.4,-11.05 -9.41,-30.32 v -5.22 a 51.11,51.11 0 0 1 4.34,-21.67 32.51,32.51 0 0 1 12.38,-14.39 34.71,34.71 0 0 1 18.72,-5 q 14.78,0 23.79,7.91 9.01,7.91 10.49,22.2 h -17.63 q -0.64,-8.26 -4.6,-12 -3.96,-3.74 -12,-3.73 -8.79,0 -13.15,6.3 -4.36,6.3 -4.48,19.54 v 6.45 q 0,13.83 4.19,20.21 4.19,6.38 13.21,6.39 8.14,0 12.16,-3.72 4.02,-3.72 4.6,-11.51 z"
     id="path26"
     inkscape:connector-curvature="0"
     style="fill:#ffffff" />
  <path
     class="cls-1"
     d="m 758.98001,216.19 h 37.32 v 14.12 h -54.9 V 145 h 17.58 z"
     id="path28"
     inkscape:connector-curvature="0"
     style="fill:#ffffff" />
  <path
     class="cls-1"
     d="m 826.27001,230.31 h -17.58 V 145 h 17.58 z"
     id="path30"
     inkscape:connector-curvature="0"
     style="fill:#ffffff" />
  <path
     class="cls-1"
     d="m 897.49001,193.34 h -33.75 v 22.85 h 39.61 v 14.12 h -57.19 V 145 h 57.07 v 14.24 h -39.49 v 20.33 h 33.75 z"
     id="path32"
     inkscape:connector-curvature="0"
     style="fill:#ffffff" />
  <path
     class="cls-1"
     d="m 986.63001,230.31 h -17.57 l -34.24,-56.13 v 56.13 h -17.58 V 145 h 17.58 l 34.27,56.25 V 145 h 17.52 z"
     id="path34"
     inkscape:connector-curvature="0"
     style="fill:#ffffff" />
  <path
     class="cls-1"
     d="m 1065.7,159.24 h -26.13 v 71.07 h -17.58 V 159.24 H 996.21001 V 145 H 1065.7 Z"
     id="path36"
     inkscape:connector-curvature="0"
     style="fill:#ffffff" />
  <circle
     class="cls-2"
     cx="137.19"
     cy="137.19"
     r="122.94"
     id="circle38"
     style="fill:#ffc000;stroke:#ffffff;stroke-width:8.5px;stroke-miterlimit:10" />
  <path
     class="cls-3"
     d="m 195.00001,154.84 c 0,0 -22.4,2 -61,2 -24.69,0 -63.130003,-2 -63.130003,-2 -7.65,-0.86 -13.94,-6.27 -13.94,-13.94 v -7.66 c 0,-7.66 5,-12.29 13.94,-13.06 0,0 41.390003,-2 60.270003,-2 18.88,0 63.86,2 63.86,2 8,1.44 13.94,4.82 13.94,12.48 v 8.24 c 0,7.67 -5.91,13.08 -13.94,13.94 z"
     id="path40"
     inkscape:connector-curvature="0"
     style="fill:#ffffff;stroke:#000000;stroke-width:4.25px;stroke-miterlimit:10" />
  <path
     class="cls-3"
     d="m 191.01001,120.04 c 0,0 -30.2,-2.18 -58.2,-2 -28,0.18 -57.950003,2 -57.950003,2 -6.05,-1.46 -7.83,-7 -7.83,-13.88 v -4.86 c 0,-6.369998 9.16,-12.699998 17.31,-13.489998 0,0 30.140003,-2 50.550003,-2 20.41,0 47.47,2.33 47.47,2.33 7.19,0.37 16.46,7.3 16.48,13.199998 v 4.86 c -0.02,6.79 -1.78,12.38 -7.83,13.84 z"
     id="path42"
     inkscape:connector-curvature="0"
     style="fill:#ffffff;stroke:#000000;stroke-width:4.25px;stroke-miterlimit:10" />
  <path
     class="cls-3"
     d="m 180.65001,87.500002 c 0,0 -24.49,-1.54 -41.56,-1.75 -17.07,-0.21 -45.710003,1.75 -45.710003,1.75 -4.85,0 -6.28,-4.48 -6.28,-10 v -5.06 c 0,-5.1 6.72,-8 13.720003,-10 4.1,-1.17 14.23,-4.48 37.6,-4.65 11.5,-0.09 29.58,2.66 37.16,4.08 6.39,1.2 11.33,5.86 11.35,10.59 v 5.06 c 0,5.5 -1.43,9.98 -6.28,9.98 z"
     id="path44"
     inkscape:connector-curvature="0"
     style="fill:#ffffff;stroke:#000000;stroke-width:4.25px;stroke-miterlimit:10" />
  <path
     class="cls-3"
     d="m 193.92001,154.61 c 0,0 -30.2,2.18 -58.2,2 -28,-0.18 -57.900003,-1.41 -57.900003,-1.41 -4,-0.36 -7.83,6.46 -7.83,13.29 v 4.86 c 0,6.37 9.16,12.7 17.32,13.49 0,0 30.130003,2 50.550003,2 20.42,0 47.46,-2.33 47.46,-2.33 7.19,-0.37 16.46,-7.3 16.48,-13.2 v -4.82 c -0.05,-6.8 -1.83,-12.42 -7.88,-13.88 z"
     id="path46"
     inkscape:connector-curvature="0"
     style="fill:#ffffff;stroke:#000000;stroke-width:4.25px;stroke-miterlimit:10" />
  <path
     class="cls-3"
     d="m 180.55001,187.15 c 0,0 -24.49,1.55 -41.56,1.75 -17.07,0.2 -45.710003,-1.75 -45.710003,-1.75 -4.85,0 -6.28,4.48 -6.28,10 v 5.06 c 0,5.11 6.82,10.29 13.880003,12.33 4.1,1.19 13.78,3.92 37.15,4.09 11.5,0.09 29.87,-2.66 37.45,-4.09 6.39,-1.2 11.33,-7.6 11.35,-12.33 v -5.06 c -0.01,-5.52 -1.43,-10 -6.28,-10 z"
     id="path48"
     inkscape:connector-curvature="0"
     style="fill:#ffffff;stroke:#000000;stroke-width:4.25px;stroke-miterlimit:10" />
  <path
     class="cls-4"
     d="m 198.11001,154.84 c 0,0 -23.52,2 -64.05,2 -25.93,0 -66.300003,-2 -66.300003,-2 -8,-0.86 -14.64,-6.27 -14.64,-13.94 v -7.66 c 0,-7.66 5.26,-12.29 14.64,-13.06 0,0 43.470003,-2 63.290003,-2 19.82,0 67.06,2 67.06,2 8.43,1.44 14.63,4.82 14.63,12.48 v 8.24 c 0,7.67 -6.2,13.08 -14.63,13.94 z"
     id="path50"
     inkscape:connector-curvature="0"
     style="fill:none;stroke:#000000;stroke-width:4.25px;stroke-miterlimit:10" />
  <path
     class="cls-4"
     d="m 193.92001,120.04 c 0,0 -31.72,-2.18 -61.11,-2 -29.39,0.18 -60.860003,2 -60.860003,2 -6.35,-1.46 -8.23,-7 -8.23,-13.88 v -4.86 c 0,-6.369998 9.63,-12.699998 18.19,-13.489998 0,0 31.650003,-2 53.080003,-2 21.43,0 49.83,2.29 49.83,2.29 7.55,0.37 17.29,7.3 17.31,13.199998 v 4.86 c 0.01,6.83 -1.86,12.42 -8.21,13.88 z"
     id="path52"
     inkscape:connector-curvature="0"
     style="fill:none;stroke:#000000;stroke-width:4.25px;stroke-miterlimit:10" />
  <path
     class="cls-4"
     d="m 182.93001,87.500002 c 0,0 -25.71,-1.54 -43.64,-1.75 -17.93,-0.21 -48.000003,1.75 -48.000003,1.75 -5.09,0 -6.59,-4.48 -6.59,-10 v -5.06 c 0,-5.1 6.12,-8 14.57,-11.17 4.600003,-1.71 14.780003,-5.08 39.320003,-5.25 12.08,-0.09 31.53,1.74 39,4.67 6.35,2.48 11.9,7 11.92,11.75 v 5.06 c 0.02,5.52 -1.48,10 -6.58,10 z"
     id="path54"
     inkscape:connector-curvature="0"
     style="fill:none;stroke:#000000;stroke-width:4.25px;stroke-miterlimit:10" />
  <path
     class="cls-4"
     d="m 196.97001,154.61 c 0,0 -31.71,2.18 -61.11,2 -29.4,-0.18 -60.850003,-1.45 -60.850003,-1.45 -4.19,-0.32 -8.19,6.53 -8.19,13.33 v 4.86 c 0,6.37 9.63,12.7 18.19,13.49 0,0 31.640003,2 53.080003,2 21.44,0 49.84,-2.33 49.84,-2.33 7.55,-0.37 17.28,-7.3 17.31,-13.2 v -4.82 c -0.04,-6.8 -1.92,-12.42 -8.27,-13.88 z"
     id="path56"
     inkscape:connector-curvature="0"
     style="fill:none;stroke:#000000;stroke-width:4.25px;stroke-miterlimit:10" />
  <path
     class="cls-4"
     d="m 182.82001,187.15 c 0,0 -25.71,1.55 -43.64,1.75 -17.93,0.2 -48.000003,-1.75 -48.000003,-1.75 -5.09,0 -6.59,4.48 -6.59,10 v 5.06 c 0,5.11 7.43,10.2 14.57,12.92 4.190003,1.59 14.470003,5.08 39.000003,5.25 12.08,0.08 31.71,-1.39 39.33,-4.09 7.4,-2.61 11.9,-9.35 11.92,-14.08 v -5.06 c 0.02,-5.52 -1.48,-10 -6.59,-10 z"
     id="path58"
     inkscape:connector-curvature="0"
     style="fill:none;stroke:#000000;stroke-width:4.25px;stroke-miterlimit:10" />
  <path
     d="m 146.67001,172.86 c 0,5.51 0,10.46 -10,10 -11.78,-0.58 -10,-4.46 -10,-10 a 10,10 0 0 1 19.93,0 z"
     id="path60"
     inkscape:connector-curvature="0" />
  <circle
     cx="53.62001"
     cy="78.990005"
     r="5.6700001"
     id="circle62" />
  <circle
     cx="212.39001"
     cy="68.940002"
     r="5.6700001"
     id="circle64" />
  <circle
     cx="230.41"
     cy="110.07001"
     r="8.9499998"
     id="circle66" />
  <circle
     cx="226.33002"
     cy="159"
     r="8.0900002"
     id="circle68" />
</svg>
