<svg id="Logos" version="1.1" viewBox="0 0 1290 340" xmlns="http://www.w3.org/2000/svg"><defs><style>.cls-1{fill:#fff;}.cls-7{fill:#fcc414;}</style></defs><title>HiveMQ MQTT Client neg</title><path class="cls-1" d="M519,42.47V188.73a6.16,6.16,0,0,1-6.27,6L480,194.48c0-57.13,0-57.18,0-57.18a6.15,6.15,0,0,0-6.26-6H421.46a6.16,6.16,0,0,0-6.27,6L415,194.48c-31.16,0-32.56.28-32.56.28a6.15,6.15,0,0,1-6.26-6V42.47a6.15,6.15,0,0,1,6.26-6l32.56.19c0,55.24.18,56.44.18,56.44a6.16,6.16,0,0,0,6.27,6h52.26a6.15,6.15,0,0,0,6.26-6l-.09-56.52c36.52,0,32.83-.11,32.83-.11A6.16,6.16,0,0,1,519,42.47Z"/><path class="cls-1" d="M559.2,54.76h23.45a5.45,5.45,0,0,1,5.54,5.35V189.63a5.45,5.45,0,0,1-5.54,5.35H559.2a5.46,5.46,0,0,1-5.55-5.35V60.11A5.46,5.46,0,0,1,559.2,54.76Z"/><path class="cls-1" d="M752.41,61.86,705.39,193a5.54,5.54,0,0,1-5.25,3.6H664.29a5.54,5.54,0,0,1-5.24-3.59L611.86,61.86a5.38,5.38,0,0,1,5.24-7.1h23.71a5.53,5.53,0,0,1,5.26,3.65L677,147.09a5.61,5.61,0,0,0,10.52,0l30.71-88.66a5.54,5.54,0,0,1,5.26-3.66h23.72A5.39,5.39,0,0,1,752.41,61.86Z"/><path class="cls-1" d="M873.16,173.69v15.94a5.46,5.46,0,0,1-5.55,5.35h-86a5.45,5.45,0,0,1-5.54-5.35V60.11a5.45,5.45,0,0,1,5.54-5.35h85a5.46,5.46,0,0,1,5.55,5.35V76.05a5.46,5.46,0,0,1-5.55,5.35h-50.5a5.45,5.45,0,0,0-5.55,5.35s-.07-.08-.07,24.47c0,0-.7.1,51.74.1l0,26.19c-54.14,0-51.9.19-51.9.19,0,25.74.19,25.29.19,25.29a5.45,5.45,0,0,0,5.55,5.35h51.46A5.46,5.46,0,0,1,873.16,173.69Z"/><path class="cls-1" d="M1081.82,42.47V188.73a6.15,6.15,0,0,1-6.26,6h-26.47a6.16,6.16,0,0,1-6.27-6l-.37-92.92c0-5.93-35,43.92-35,43.92a6.34,6.34,0,0,1-5.16,2.6h-12.9a6.32,6.32,0,0,1-5.18-2.64s-34.72-50.17-34.72-44.22l.18,93.26a6.15,6.15,0,0,1-6.26,6H916.9a6.15,6.15,0,0,1-6.26-6V42.47a6.15,6.15,0,0,1,6.26-6h35.46a6.33,6.33,0,0,1,5.21,2.69L991,87.4a6.4,6.4,0,0,0,10.42,0l33.45-48.28a6.33,6.33,0,0,1,5.21-2.69h35.46A6.15,6.15,0,0,1,1081.82,42.47Z"/><path class="cls-1" d="M1268.5,152.78a69.55,69.55,0,0,1-16.53,24,5.84,5.84,0,0,0-.28,8.26l21.62,22.83c-39.5,0-41.69.28-41.69.28a6.37,6.37,0,0,1-4.76-2.11l-7.09-8a6.51,6.51,0,0,0-6.28-1.93,104.48,104.48,0,0,1-22.24,2.23q-27.3,0-46.37-10.76a69.65,69.65,0,0,1-28.6-29.45q-9.54-18.71-9.53-42.3,0-23.19,9.53-41.78a71.1,71.1,0,0,1,28.6-29.56q19.06-11,46.37-11,26.87,0,45.94,11a71.68,71.68,0,0,1,28.71,29.66q9.63,18.7,9.64,41.68A94.35,94.35,0,0,1,1268.5,152.78Zm-110.4-.11q11.48,13.91,33.15,13.9h.44l-10.14-11.33a6,6,0,0,1,4.75-10h26.8a6.38,6.38,0,0,1,4.73,2.08h0c2.81,3.12,7,5.78,9.16,2.19a88.09,88.09,0,0,0,5.43-12.94,67,67,0,0,0,3.25-21.41,60.64,60.64,0,0,0-5.2-25.69,41.1,41.1,0,0,0-15.27-17.76q-10.08-6.47-24-6.47-21.45,0-33,14t-11.6,36.56Q1146.61,138.79,1158.1,152.67Z"/><g transform="translate(366.05 293.75)" fill="#fff" aria-label="MQTT CLIENT"><path d="m21.978-76.739 25.088 62.614 25.088-62.614h13.124v76.739h-10.119v-29.884l0.94869-32.256-25.193 62.139h-7.7476l-25.14-61.981 1.0014 32.097v29.884h-10.119v-76.739z" fill="#fff"/><path d="m162.3-35.892q0 11.121-3.5312 19.185-3.5312 8.0112-9.9086 12.544l13.703 10.752-6.9044 6.3773-16.18-12.86q-3.7948 0.94869-8.0112 0.94869-9.0653 0-16.075-4.4272-7.0098-4.4799-10.91-12.702-3.8475-8.2747-3.9529-19.132v-5.534q0-11.068 3.8475-19.554t10.857-12.965q7.0625-4.5326 16.128-4.5326 9.2761 0 16.286 4.4799 7.0625 4.4799 10.857 12.913 3.7948 8.3801 3.7948 19.606zm-10.119-4.9543q0-13.545-5.4286-20.871-5.3759-7.3787-15.39-7.3787-9.5396 0-15.074 7.326-5.4813 7.2733-5.6394 20.239v5.6394q0 13.176 5.4813 20.766 5.534 7.5895 15.337 7.5895 9.8032 0 15.179-7.1152 5.3759-7.1679 5.534-20.502z"/><path d="m229.19-68.411h-24.666v68.411h-10.067v-68.411h-24.613v-8.3274h59.346z"/><path d="m294.97-68.411h-24.666v68.411h-10.067v-68.411h-24.613v-8.3274h59.346z"/><path d="m388.01-24.35q-1.423 12.175-9.0126 18.816-7.5368 6.5881-20.081 6.5881-13.598 0-21.82-9.7504-8.1693-9.7504-8.1693-26.089v-7.3787q0-10.699 3.7948-18.816 3.8475-8.1166 10.857-12.438 7.0098-4.3745 16.233-4.3745 12.228 0 19.606 6.8517 7.3787 6.799 8.5909 18.868h-10.172q-1.3176-9.1707-5.7448-13.282-4.3745-4.111-12.28-4.111-9.6977 0-15.232 7.1679-5.4813 7.1679-5.4813 20.397v7.4314q0 12.491 5.2178 19.87 5.2178 7.3787 14.599 7.3787 8.4328 0 12.913-3.7948 4.5326-3.8475 6.0084-13.334z" style=""/><path d="m411.94-8.2747h36.367v8.2747h-46.539v-76.739h10.172z" style=""/><path d="m470.81 0h-10.119v-76.739h10.119z" style=""/><path d="m532.63-35.471h-33.257v27.196h38.633v8.2747h-48.752v-76.739h48.225v8.3274h-38.106v24.666h33.257z" style=""/><path d="m612.22 0h-10.172l-38.633-59.135v59.135h-10.172v-76.739h10.172l38.738 59.399v-59.399h10.067z"/><path d="m682.23-68.411h-24.666v68.411h-10.067v-68.411h-24.613v-8.3274h59.346z"/></g><circle class="cls-7" cx="169.56" cy="169.51" r="138.55"/><path class="cls-1" d="M169.47,332.47C79.88,332.47,7,259.59,7,170S79.88,7.53,169.47,7.53,331.94,80.41,331.94,170,259.05,332.47,169.47,332.47Zm0-311.21C87.46,21.26,20.73,88,20.73,170S87.46,318.74,169.47,318.74,318.21,252,318.21,170,251.48,21.26,169.47,21.26Z"/><path class="cls-1" d="m233.73 190.05s-25 2.28-68 2.28c-27.54 0-70.41-2.28-70.41-2.28-8.52-1-15.54-7-15.54-15.53v-8.52c0-8.54 5.59-13.71 15.54-14.56 0 0 46.16-2.27 67.21-2.27s71.22 2.27 71.22 2.27c9 1.61 18.54 5.37 18.54 13.91v9.2c-0.02 8.51-9.61 14.55-18.56 15.5z"/><path class="cls-1" d="m230.27 150.25s-33.67-2.43-64.89-2.28-64.62 2.28-64.62 2.28c-6.76-1.63-8.76-7.86-8.76-15.48v-5.41c0-7.11 10.22-14.17 19.31-15.05 0 0 33.61-2.28 56.37-2.28s52.93 2.6 52.93 2.6c8 0.41 18.35 8.14 18.38 14.73v5.41c0.01 7.62-1.99 13.85-8.72 15.48z"/><path class="cls-1" d="m218.72 114s-27.31-1.72-46.34-1.94-51 1.94-51 1.94c-5.41 0-7-5-7-11.1v-5.68c0-5.7 7.5-8.94 15.3-11.18 4.58-1.3 15.87-5 41.93-5.19 12.83-0.09 33 3 41.44 4.56 7.13 1.34 12.64 6.54 12.66 11.81v5.64c0.02 6.14-1.58 11.14-6.99 11.14z"/><path class="cls-1" d="m233.52 189.81s-33.68 2.43-64.89 2.27-64.63-1.63-64.63-1.63c-4.45-0.4-8.73 7.21-8.73 14.83v5.42c0 7.11 10.22 14.17 19.31 15.05 0 0 33.61 2.27 56.37 2.27s52.92-2.6 52.92-2.6c8-0.41 18.36-8.14 18.39-14.72v-5.42c0-7.62-2-13.85-8.74-15.47z"/><path class="cls-1" d="m218.61 226.09s-27.31 1.72-46.35 1.95-51-1.95-51-1.95c-5.4 0-7 5-7 11.1v5.64c0 5.7 7.61 11.48 15.48 13.76 4.57 1.32 15.37 4.37 41.43 4.56 12.82 0.09 33.3-3 41.76-4.56 7.13-1.34 12.63-8.48 12.66-13.76v-5.64c0.03-6.1-1.59-11.1-6.98-11.1z"/><path d="M238.55,149.36l-.26,0c-.52,0-49.8-2.14-72.77-2.27h-2.11c-21.89,0-70.19,2.26-70.74,2.28-11.59.95-20.24,7-20.24,16.64v8.55c0,9.08,9.65,16.49,20.19,17.61h.11c.44,0,44.12,2.21,72.79,2.28h1.25c44.77,0,71.34-2.26,71.61-2.28h0c10.71-1.09,20.2-8.33,20.2-17.61v-9.2C258.6,156.78,250.52,151.4,238.55,149.36Zm-73.27,41.32c-27.34-.06-68.81-2.22-70.69-2.32-8.21-.94-13.94-6.6-13.94-13.77v-8.74c0-9.58,7.59-12.24,13.87-12.78.47,0,47.36-2.32,68.62-2.32h2.2c21.73.14,67.56,2.18,70.48,2.31,12.55,2.3,14,8,14,12.12v9.41c0,7.34-5.62,12.88-14,13.78-.75.06-26.39,2.31-69.37,2.31Z"/><path d="M223.56,112.56c-.32,0-32-2.6-55.75-2.61h-2.3c-23.61.13-56.68,2.25-57.08,2.27-10.25,1-22.17,8.63-22.17,17.13v5.41c0,10,3.63,15.87,10.79,17.51l.29.06h.3l2.35-.14.28.08.31.08.31,0c.33,0,33.71-2.12,64.5-2.27s64.4,2.24,64.73,2.26l.33,0,.31-.08.33-.09,2.28.14.31,0,.3-.07c7.16-1.64,10.79-7.53,10.79-17.51v-5.42C244.74,121.38,232.56,113,223.56,112.56Zm-58.2,33.33c-26.91.13-55.67,1.6-64.92,2.11-2.93-.95-6.34-3.61-6.34-13.23v-5.41c0-5.6,8.8-12.14,17.37-13,.33,0,31.69-2.12,54-2.26h2.22c22.41,0,52.42,2.56,52.79,2.59,7.19.37,16.39,7.47,16.41,12.65v5.41c0,9.55-3.36,12.24-6.28,13.21C221.4,147.4,192.36,145.76,165.36,145.89Z"/><path d="M216.1,81.17c-8.4-3.28-30.06-5.47-44.29-5.35-26,.18-37.9,3.51-44.56,6C118,85.27,109.65,89,109.64,96.22v5.64c0,10.9,5.14,13.18,9.44,13.18h.14l1-.07a8.88,8.88,0,0,0,1.15.07h.14c.32,0,32.07-2.16,50.8-1.94s46,1.92,46.24,1.94h.13c.4,0,.8,0,1.2-.07l1.23.07h.12c4.31,0,9.44-2.28,9.44-13.18V96.21C230.68,89.31,222.82,83.79,216.1,81.17Zm-43.47,27.76H167.9c-17.5.09-41.6,1.51-47.57,1.88-1.6-.31-3.85-1.79-3.85-8.94V96.22c0-3.52,4.52-6.52,13.8-9.18l.78-.22c4.85-1.41,16.19-4.71,40.59-4.89,13.41-.1,34.17,3.23,41,4.52,6,1.14,10.94,5.52,11,9.77v5.64c0,7.12-2.23,8.62-3.83,8.93C213.55,110.43,189.78,109.13,172.63,108.93Z"/><path d="m237.39 188.78l-0.3-0.07h-0.31l-2.42 0.16-0.35-0.11-0.32-0.07h-0.32c-0.31 0-29.73 2.12-58.7 2.27h-5.88-3.25c-29.91-0.23-61.12-1.59-61.35-1.6a5.81 5.81 0 0 0 -1.5 0.07l-1.59-0.07a7.63 7.63 0 0 0 -5.77 2.25c-3.39 3.12-5.66 9-5.66 14.65v5.42c0 8.49 11.92 16.18 22.22 17.13 0.33 0 30.34 1.93 53.59 2.23h5.42 0.32c23.71 0 55.43-2.58 55.68-2.6 9.06-0.44 21.25-8.83 21.28-16.8v-5.42c0-9.91-3.63-15.8-10.79-17.44zm-71.84 38.12c-22-0.29-50.52-2.21-50.77-2.22-8.63-0.84-17.43-7.39-17.43-13v-5.42c0-5.15 2.13-9.81 4.25-11.74a3.87 3.87 0 0 1 1.5 -0.91c7.94 0.3 35.64 1.31 62.39 1.51h3.13 2.9c26.06 0 53.33-1.53 62.4-2.08 2.91 1 6.26 3.67 6.26 13.19v5.41c0 5.19-9.23 12.28-16.49 12.66-0.3 0-30.24 2.58-52.64 2.59-1.77 0.05-3.62 0.03-5.5 0.01z"/><path d="m221.16 225h-0.16l-1.23 0.07c-0.4 0-0.8-0.07-1.2-0.07h-0.13c-0.27 0-27.47 1.72-46.24 2s-50.49-1.92-50.8-2h-0.15a11.43 11.43 0 0 0 -1.15 0.07l-1-0.07h-0.1c-4.31 0-9.44 2.29-9.44 13.19v5.64c0 7.12 9.48 13.26 17.6 16.35 3.76 1.43 15.21 5.79 44.23 6h1.08c13 0 34.7-1.57 43.48-4.68 9.15-3.23 14.65-11.52 14.68-17.67v-5.63c-0.03-10.9-5.16-13.2-9.47-13.2zm-52.87 6.12h0.42 3.8c17.16-0.19 40.93-1.5 47.2-1.86 1.6 0.32 3.82 1.82 3.82 8.94v5.63c0 4.37-4.91 10.58-10.95 11.72-9.56 1.79-29.23 4.64-41.37 4.52-26.05-0.19-36.81-3.31-40.86-4.48-7.71-2.23-14-7.5-14-11.76v-5.63c0-7.16 2.25-8.64 3.85-8.94 6.06 0.37 30.57 1.8 48.09 1.87z"/><path d="M180.84,210.15c0,6.14,0,11.66-11.12,11.12-13.13-.65-11.11-5-11.11-11.12a11.12,11.12,0,0,1,22.23,0Z"/><circle cx="77.08" cy="105.48" r="6.32"/><circle cx="254.12" cy="94.27" r="6.32"/><circle cx="274.21" cy="140.14" r="9.98"/><circle cx="269.66" cy="194.7" r="9.02"/></svg>
