<svg id="Ebene_1" data-name="Ebene 1" width="100mm" height="100mm" xmlns="http://www.w3.org/2000/svg" viewBox="0 0 500 500"><defs><style>.cls-1{fill:#ffc000;}.cls-2{fill:#fff;}</style></defs><circle class="cls-1" cx="250" cy="250" r="199.6"/><path d="M250,456.5C136.14,456.5,43.5,363.87,43.5,250S136.14,43.5,250,43.5,456.5,136.13,456.5,250,363.86,456.5,250,456.5Zm0-399.19C143.75,57.31,57.31,143.75,57.31,250S143.75,442.69,250,442.69,442.69,356.25,442.69,250,356.25,57.31,250,57.31Z"/><path class="cls-2" d="M343.86,278.65s-36.36,3.31-99,3.31c-40.08,0-102.5-3.31-102.5-3.31-12.41-1.38-22.62-10.18-22.62-22.62V243.59c0-12.44,8.13-20,22.62-21.2,0,0,67.21-3.31,97.85-3.31s103.68,3.31,103.68,3.31c13,2.34,22.63,7.81,22.63,20.26V256C366.49,268.47,356.89,277.27,343.86,278.65Z"/><path d="M244.83,285.41c-39.71,0-102.06-3.28-102.68-3.31l-.2,0c-14.89-1.66-25.7-12.62-25.7-26.05V243.59c0-14.25,9.4-23.23,25.78-24.64.8,0,67.78-3.32,98.15-3.32S343.29,218.9,344,218.94l.45.05c16.9,3,25.47,11,25.47,23.66V256c0,13.73-10.57,24.45-25.71,26.05h-.05C343.81,282.12,306.94,285.41,244.83,285.41Zm-102.21-10.2c2.88.15,63.43,3.3,102.21,3.3,61.06,0,97.53-3.19,98.7-3.3C355.2,274,363,266.26,363,256V242.65c0-11.71-10.4-15.16-19.56-16.83-4.56-.2-73.94-3.29-103.3-3.29-30.2,0-97,3.27-97.68,3.3-8.75.76-19.34,4.46-19.34,17.76V256C123.16,266,131.15,273.89,142.62,275.21Z"/><path class="cls-2" d="M337.38,222.15s-49-3.54-94.48-3.3-94.08,3.3-94.08,3.3c-9.82-2.36-12.72-11.44-12.72-22.53v-7.88c0-10.35,14.87-20.63,28.11-21.91,0,0,48.93-3.31,82.07-3.31s77,3.78,77,3.78c11.68.6,26.73,11.86,26.77,21.44v7.88C350.1,210.71,347.2,219.79,337.38,222.15Z"/><path d="M337.66,225.64l-.53,0c-.49,0-49.41-3.53-94.21-3.3s-93.4,3.27-93.89,3.3l-.52,0-.5-.12c-10.2-2.46-15.37-11.16-15.37-25.89v-7.88c0-12.57,16.8-24,31.24-25.35.59,0,49.45-3.32,82.33-3.32h.07c32.91,0,76.91,3.76,77.35,3.79,15.3.79,29.88,14.68,29.92,24.86v7.9c0,14.73-5.17,23.43-15.37,25.89ZM246.21,170c-32.65,0-81.28,3.27-81.76,3.3-12,1.17-24.9,10.67-24.9,18.47v7.88c0,14.47,5.34,17.89,9.6,19.06,5.5-.34,51.28-3.07,93.73-3.29s88.58,2.89,94.18,3.28c4.26-1.16,9.59-4.6,9.59-19v-7.88c0-7.37-13.21-17.46-23.49-18-.56-.05-44.27-3.77-76.88-3.78Z"/><path class="cls-2" d="M320.56,169.33s-39.76-2.51-67.48-2.84-74.2,2.84-74.2,2.84c-7.87,0-10.2-7.28-10.2-16.17V145c0-8.29,10.92-13,22.28-16.27,6.66-1.9,23.1-7.28,61-7.56,18.67-.14,48,4.32,60.34,6.64,10.37,2,18.39,9.51,18.42,17.19v8.21C330.76,162.05,328.43,169.33,320.56,169.33Z"/><path d="M320.56,172.78h-.22c-.39,0-40-2.5-67.3-2.83s-73.46,2.8-73.93,2.83h-.23c-5.1,0-13.65-2.55-13.65-19.62V145c0-11.21,14.14-16.55,24.78-19.59l1.12-.32c7.31-2.12,24.42-7.1,60.85-7.37,20-.12,50.81,4.78,61,6.69,12.07,2.27,21.2,11.12,21.24,20.58v8.22C334.21,170.23,325.66,172.78,320.56,172.78ZM248.92,163l4.21,0c26.77.32,65.18,2.69,67.54,2.84,1.92,0,6.64-.24,6.64-12.72V145c0-6-7-12.19-15.61-13.8-10-1.88-40.16-6.66-59.67-6.58-35.47.27-51.94,5.05-59,7.1l-1.15.33c-13.31,3.8-19.78,8-19.78,12.95v8.21c0,12.46,4.71,12.71,6.63,12.72C181.28,165.71,221.84,163,248.92,163Z"/><path class="cls-2" d="M342.1,278.29s-49,3.54-94.47,3.31-94.09-2.37-94.09-2.37c-6.48-.58-12.72,10.5-12.72,21.59v7.88c0,10.35,14.88,20.63,28.12,21.91,0,0,48.93,3.32,82.07,3.31s77.05-3.78,77.05-3.78c11.68-.6,26.73-11.85,26.77-21.44v-7.88C354.83,289.73,351.92,280.65,342.1,278.29Z"/><path d="M251,337.37c-32.88,0-81.76-3.28-82.25-3.31-14.55-1.41-31.34-12.78-31.34-25.35v-7.89c0-8.55,3.33-17.34,8.29-21.88a10.76,10.76,0,0,1,8.19-3.15c.33,0,48.94,2.13,93.8,2.35s93.72-3.26,94.2-3.29l.54,0,.52.12c10.2,2.46,15.37,11.17,15.37,25.89v7.88c0,10.2-14.62,24.09-30,24.89-.33,0-44.33,3.78-77.23,3.78Zm-97.79-54.7a4.46,4.46,0,0,0-2.85,1.37c-3,2.75-6,9.39-6,16.78v7.88c0,7.81,12.85,17.3,25,18.48.39,0,49,3.29,81.69,3.29h0c32.61,0,76.32-3.73,76.75-3.77,10.41-.54,23.58-10.63,23.61-18v-7.87c0-14.45-5.32-17.88-9.58-19.05-5.61.39-51.74,3.53-94.18,3.28-45-.23-93.73-2.35-94.22-2.37Z"/><path class="cls-2" d="M320.4,331.11s-39.76,2.51-67.48,2.84-74.2-2.84-74.2-2.84c-7.87,0-10.2,7.28-10.2,16.17v8.21c0,8.29,11.08,16.71,22.54,20,6.65,1.92,22.37,6.35,60.31,6.63,18.67.14,48.49-4.32,60.8-6.63,10.38-1.95,18.4-12.35,18.43-20v-8.21C330.6,338.39,328.27,331.11,320.4,331.11Z"/><path d="M252.21,385.61h-.87c-38.85-.29-55.12-5-61.24-6.78-12.13-3.51-25-12.88-25-23.34v-8.21c0-17.07,8.55-19.62,13.65-19.62H179c.46,0,46.66,3.13,73.93,2.83s66.91-2.81,67.3-2.83h.22c5.1,0,13.65,2.55,13.65,19.62v8.21c0,9.19-9.13,21.15-21.24,23.42C298.88,381.53,270.38,385.61,252.21,385.61ZM178.6,334.56c-1.92,0-6.63.26-6.63,12.72v8.21c0,5.91,9.18,13.57,20.05,16.71,5.87,1.7,21.48,6.22,59.37,6.5,17.61.15,46.25-4,60.15-6.57,8.61-1.62,15.58-10.44,15.61-16.66v-8.19c0-12.48-4.72-12.71-6.64-12.72-2.36.15-40.77,2.52-67.55,2.84S181.26,334.74,178.6,334.56Z"/><path d="M244.92,285.41c-41.7,0-107.15-3.28-107.81-3.31l-.19,0c-15.56-1.65-26.84-12.61-26.84-26.05V243.59c0-14.26,9.81-23.24,26.92-24.65.83,0,71.15-3.31,103-3.31s108.26,3.27,109,3.31l.43,0c17.67,3,26.63,11,26.63,23.67V256c0,13.74-11.05,24.45-26.86,26.05h-.05C348.83,282.12,310.12,285.41,244.92,285.41Zm-107.37-10.2c2.9.14,66.59,3.3,107.37,3.3,64.17,0,102.48-3.2,103.67-3.3,12.34-1.25,20.63-9,20.63-19.18V242.65c0-5.69-2.15-13.6-20.68-16.83-4.58-.19-77.62-3.29-108.51-3.29-31.72,0-101.88,3.27-102.59,3.3-9.27.76-20.46,4.47-20.46,17.76V256C117,266,125.43,273.88,137.55,275.21Z"/><path d="M342.37,225.63l-.51,0c-.51,0-51.91-3.56-99-3.3s-98.1,3.27-98.61,3.3l-.49,0-.49-.11c-10.64-2.44-16-11.16-16-25.9v-7.88c0-12.58,17.55-24,32.65-25.35.61,0,51.91-3.32,86.42-3.32h.08c34.54,0,80.73,3.75,81.19,3.79,13.55.66,31.23,12.84,31.28,24.86v7.9c0,14.75-5.4,23.46-16,25.9Zm-96-55.66c-34.29,0-85.36,3.27-85.88,3.3-12.73,1.18-26.29,10.67-26.29,18.47v7.88c0,14.49,5.7,17.9,10.22,19.06,5.52-.33,53.75-3.07,98.46-3.29s93.31,2.91,98.93,3.29c4.52-1.17,10.21-4.58,10.21-19.06v-7.88c0-7.36-14-17.46-24.83-18-.57-.05-46.49-3.77-80.74-3.78Z"/><path d="M324.27,172.78h-.2c-.42,0-42-2.5-70.7-2.83s-77.17,2.8-77.65,2.83h-.23c-5.29,0-14.16-2.55-14.16-19.62V145c0-10.82,12.26-16.28,25.91-21.37,9.73-3.63,27.06-8.48,65-8.75,20.7-.18,52.37,3,64.64,7.82,9.91,3.87,21.5,12,21.54,22.29v8.22C338.43,170.23,329.56,172.78,324.27,172.78ZM249,163l4.41,0c28.15.32,68.57,2.7,70.92,2.84s7.16-.2,7.16-12.72V145c0-5.4-7.08-11.94-17.15-15.87-11.21-4.37-42-7.45-62.08-7.34-36.86.26-53.41,4.86-62.64,8.31-13.23,4.93-21.42,9.14-21.42,14.9v8.21c0,12.51,4.91,12.71,7.14,12.72C177.91,165.72,220.57,163,249,163Z"/><path d="M251.35,337.37c-34.51,0-85.83-3.28-86.35-3.31-15.19-1.4-32.75-12.78-32.75-25.36v-7.88c0-8.34,3.37-17,8.38-21.64a11.44,11.44,0,0,1,8.72-3.39c.36,0,51.41,2.13,98.52,2.35s98.44-3.26,98.95-3.3l.52,0,.49.11c10.65,2.44,16,11.16,16,25.9v7.88c-.05,12-17.73,24.22-31.39,24.89-.35,0-46.54,3.78-81.08,3.78Zm-102.7-54.7a5.22,5.22,0,0,0-3.35,1.6c-3.62,3.32-6.15,10.13-6.15,16.55v7.88c0,7.8,13.57,17.29,26.39,18.48.42,0,51.53,3.29,85.81,3.29h.05c34.26,0,80.17-3.73,80.63-3.77,11-.54,24.91-10.64,24.94-18v-7.87c0-14.48-5.69-17.89-10.21-19.05-5.61.37-54.2,3.5-98.92,3.28-47.24-.23-98.41-2.35-98.93-2.37Z"/><path d="M253.18,388.45H251.6c-42.32-.3-59-6.66-64.54-8.75-11.94-4.54-25.89-13.61-25.89-24.2v-8.21c0-17.07,8.87-19.62,14.16-19.62h.22c.49,0,49,3.15,77.66,2.83s70.28-2.81,70.69-2.83h.21c5.29,0,14.16,2.55,14.16,19.62v8.21c0,9.1-8.15,21.35-21.65,26.12C303.79,386.15,272.18,388.45,253.18,388.45Zm-78-53.89c-2.23,0-7.15.21-7.15,12.72v8.21c0,5.47,9.22,13.1,21.45,17.75,5.2,2,21,8,62.13,8.3,20.6.17,51.42-2.46,62.67-6.44,11.08-3.92,17-13.92,17.05-19.63v-8.19c0-12.52-4.93-12.71-7.16-12.72s-42.77,2.52-70.92,2.84S177.88,334.73,175.22,334.56Z"/><path d="M265.4,307.91c0,8.94,0,17-16.18,16.18-19.12-.94-16.18-7.24-16.18-16.18a16.18,16.18,0,1,1,32.36,0Z"/><circle cx="114.34" cy="155.52" r="9.2"/><circle cx="372.09" cy="139.2" r="9.2"/><circle cx="401.34" cy="205.97" r="14.52"/><circle cx="394.73" cy="285.41" r="13.13"/></svg>