<svg id="Ebene_1" data-name="Ebene 1" xmlns="http://www.w3.org/2000/svg" viewBox="0 0 1437 507"><defs><style>.cls-1,.cls-3{fill:#fff;}.cls-2{fill:#ffc000;stroke:#fff;stroke-width:8.5px;}.cls-2,.cls-3,.cls-4{stroke-miterlimit:10;}.cls-3,.cls-4{stroke:#000;stroke-width:4.25px;}.cls-4{fill:none;}</style></defs><path class="cls-1" d="M549.16,231.62H541.9V190.73H493.15v40.89h-7.21V146.31h7.21v38.32H541.9V146.31h7.26Z"/><path class="cls-1" d="M580.83,231.62h-7.21V154.84h7.21Z"/><path class="cls-1" d="M630.9,222.13l.47,1.64.52-1.64,26.84-67.29h7.91l-31.76,76.78H628l-31.76-76.78h7.85Z"/><path class="cls-1" d="M727.49,194.82H687.58v31.32h45.88v5.48H680.38V154.84h52.79v5.49H687.58v29h39.91Z"/><path class="cls-1" d="M759.39,146.31l31.47,75.3,31.58-75.3h9.61v85.31h-7.21V194.48l.59-38.09-31.76,75.23H788.1l-31.64-74.94.59,37.56v37.38h-7.21V146.31Z"/><path class="cls-1" d="M917.68,193.6q0,12.18-4.31,21.24a30.48,30.48,0,0,1-12.27,13.68l15.53,13.53-5,4.46-17.41-15.06a36,36,0,0,1-9.78,1.35,31,31,0,0,1-29.06-18.43A47.58,47.58,0,0,1,851.18,194v-9.55a48.91,48.91,0,0,1,4.13-20.66,31.82,31.82,0,0,1,58.24-.09,49,49,0,0,1,4.13,20.69Zm-7.21-9.26q0-15.4-7-24.14t-19.16-8.73q-11.83,0-18.9,8.76t-7.06,24.46v8.91q0,15.17,7,24.05t19.07,8.88q12.18,0,19.1-8.73t6.91-24.38Z"/><path class="cls-1" d="M505.74,261.31l21.92,61.88,21.79-61.88h23.09v85.31H554.9V323.3l1.76-40.25-23,63.57H521.56l-23-63.51,1.76,40.19v23.32H482.77V261.31Z"/><path class="cls-1" d="M656.65,305.9q0,12-3.87,20.77a35.54,35.54,0,0,1-10.72,14.15L656.24,352l-11.19,9.9-18.16-14.59a38.63,38.63,0,0,1-6.45.53,35.44,35.44,0,0,1-18.92-5.1,33.88,33.88,0,0,1-12.9-14.56A50,50,0,0,1,584,306.37v-4.22A51.21,51.21,0,0,1,588.54,280a33.77,33.77,0,0,1,12.83-14.7,37.58,37.58,0,0,1,37.91,0A33.84,33.84,0,0,1,652.11,280a51.09,51.09,0,0,1,4.54,22.12ZM638.84,302q0-13.43-4.81-20.4t-13.71-7q-8.84,0-13.65,6.89t-4.86,20.18v4.16q0,13.07,4.8,20.28t13.83,7.2q8.85,0,13.59-6.94t4.81-20.24Z"/><path class="cls-1" d="M730.64,275.55H704.51v71.07H686.93V275.55H661.15V261.31h69.49Z"/><path class="cls-1" d="M809.44,275.55H783.31v71.07H765.73V275.55H740V261.31h69.49Z"/><path class="cls-1" d="M912.83,318.21q-1,13.77-10.16,21.68T878.5,347.8q-16.41,0-25.81-11.05t-9.41-30.32v-5.22a51.11,51.11,0,0,1,4.34-21.67A32.51,32.51,0,0,1,860,265.15a34.71,34.71,0,0,1,18.72-5q14.78,0,23.79,7.91T913,290.26H895.37q-.64-8.26-4.6-12t-12-3.73q-8.79,0-13.15,6.3t-4.48,19.54v6.45q0,13.83,4.19,20.21t13.21,6.39q8.14,0,12.16-3.72t4.6-11.51Z"/><path class="cls-1" d="M943.16,332.5h37.32v14.12h-54.9V261.31h17.58Z"/><path class="cls-1" d="M1010.45,346.62H992.87V261.31h17.58Z"/><path class="cls-1" d="M1081.67,309.65h-33.75V332.5h39.61v14.12h-57.19V261.31h57.07v14.24h-39.49v20.33h33.75Z"/><path class="cls-1" d="M1170.81,346.62h-17.57L1119,290.49v56.13h-17.58V261.31H1119l34.27,56.25V261.31h17.52Z"/><path class="cls-1" d="M1249.88,275.55h-26.13v71.07h-17.58V275.55h-25.78V261.31h69.49Z"/><circle class="cls-2" cx="321.37" cy="253.5" r="122.94"/><path class="cls-3" d="M379.18,271.15s-22.4,2-61,2c-24.69,0-63.13-2-63.13-2-7.65-.86-13.94-6.27-13.94-13.94v-7.66c0-7.66,5-12.29,13.94-13.06,0,0,41.39-2,60.27-2s63.86,2,63.86,2c8,1.44,13.94,4.82,13.94,12.48v8.24C393.12,264.88,387.21,270.29,379.18,271.15Z"/><path class="cls-3" d="M375.19,236.35s-30.2-2.18-58.2-2-57.95,2-57.95,2c-6.05-1.46-7.83-7-7.83-13.88v-4.86c0-6.37,9.16-12.7,17.31-13.49,0,0,30.14-2,50.55-2s47.47,2.33,47.47,2.33c7.19.37,16.46,7.3,16.48,13.2v4.86C383,229.3,381.24,234.89,375.19,236.35Z"/><path class="cls-3" d="M364.83,203.81s-24.49-1.54-41.56-1.75-45.71,1.75-45.71,1.75c-4.85,0-6.28-4.48-6.28-10v-5.06c0-5.1,6.72-8,13.72-10,4.1-1.17,14.23-4.48,37.6-4.65,11.5-.09,29.58,2.66,37.16,4.08,6.39,1.2,11.33,5.86,11.35,10.59v5.06C371.11,199.33,369.68,203.81,364.83,203.81Z"/><path class="cls-3" d="M378.1,270.92s-30.2,2.18-58.2,2S262,271.51,262,271.51c-4-.36-7.83,6.46-7.83,13.29v4.86c0,6.37,9.16,12.7,17.32,13.49,0,0,30.13,2,50.55,2s47.46-2.33,47.46-2.33c7.19-.37,16.46-7.3,16.48-13.2V284.8C385.93,278,384.15,272.38,378.1,270.92Z"/><path class="cls-3" d="M364.73,303.46s-24.49,1.55-41.56,1.75-45.71-1.75-45.71-1.75c-4.85,0-6.28,4.48-6.28,10v5.06c0,5.11,6.82,10.29,13.88,12.33,4.1,1.19,13.78,3.92,37.15,4.09,11.5.09,29.87-2.66,37.45-4.09,6.39-1.2,11.33-7.6,11.35-12.33v-5.06C371,307.94,369.58,303.46,364.73,303.46Z"/><path class="cls-4" d="M382.29,271.15s-23.52,2-64.05,2c-25.93,0-66.3-2-66.3-2-8-.86-14.64-6.27-14.64-13.94v-7.66c0-7.66,5.26-12.29,14.64-13.06,0,0,43.47-2,63.29-2s67.06,2,67.06,2c8.43,1.44,14.63,4.82,14.63,12.48v8.24C396.92,264.88,390.72,270.29,382.29,271.15Z"/><path class="cls-4" d="M378.1,236.35s-31.72-2.18-61.11-2-60.86,2-60.86,2c-6.35-1.46-8.23-7-8.23-13.88v-4.86c0-6.37,9.63-12.7,18.19-13.49,0,0,31.65-2,53.08-2S369,204.41,369,204.41c7.55.37,17.29,7.3,17.31,13.2v4.86C386.32,229.3,384.45,234.89,378.1,236.35Z"/><path class="cls-4" d="M367.11,203.81s-25.71-1.54-43.64-1.75-48,1.75-48,1.75c-5.09,0-6.59-4.48-6.59-10v-5.06c0-5.1,6.12-8,14.57-11.17,4.6-1.71,14.78-5.08,39.32-5.25,12.08-.09,31.53,1.74,39,4.67,6.35,2.48,11.9,7,11.92,11.75v5.06C373.71,199.33,372.21,203.81,367.11,203.81Z"/><path class="cls-4" d="M381.15,270.92s-31.71,2.18-61.11,2-60.85-1.45-60.85-1.45C255,271.15,251,278,251,284.8v4.86c0,6.37,9.63,12.7,18.19,13.49,0,0,31.64,2,53.08,2s49.84-2.33,49.84-2.33c7.55-.37,17.28-7.3,17.31-13.2V284.8C389.38,278,387.5,272.38,381.15,270.92Z"/><path class="cls-4" d="M367,303.46s-25.71,1.55-43.64,1.75-48-1.75-48-1.75c-5.09,0-6.59,4.48-6.59,10v5.06c0,5.11,7.43,10.2,14.57,12.92,4.19,1.59,14.47,5.08,39,5.25,12.08.08,31.71-1.39,39.33-4.09,7.4-2.61,11.9-9.35,11.92-14.08v-5.06C373.61,307.94,372.11,303.46,367,303.46Z"/><path d="M330.85,289.17c0,5.51,0,10.46-10,10-11.78-.58-10-4.46-10-10a10,10,0,0,1,19.93,0Z"/><circle cx="237.8" cy="195.3" r="5.67"/><circle cx="396.57" cy="185.25" r="5.67"/><circle cx="414.59" cy="226.38" r="8.95"/><circle cx="410.51" cy="275.31" r="8.09"/></svg>