<?xml version="1.0" encoding="UTF-8" standalone="no"?>
<!-- Created with Inkscape (http://www.inkscape.org/) -->

<svg
   xmlns:dc="http://purl.org/dc/elements/1.1/"
   xmlns:cc="http://creativecommons.org/ns#"
   xmlns:rdf="http://www.w3.org/1999/02/22-rdf-syntax-ns#"
   xmlns:svg="http://www.w3.org/2000/svg"
   xmlns="http://www.w3.org/2000/svg"
   xmlns:xlink="http://www.w3.org/1999/xlink"
   xmlns:sodipodi="http://sodipodi.sourceforge.net/DTD/sodipodi-0.dtd"
   xmlns:inkscape="http://www.inkscape.org/namespaces/inkscape"
   width="100mm"
   height="100mm"
   viewBox="0 0 100 100"
   version="1.1"
   id="svg59"
   inkscape:version="0.92.2 5c3e80d, 2017-08-06"
   sodipodi:docname="MQTT Bee Logo.svg">
  <defs
     id="defs53">
    <linearGradient
       inkscape:collect="always"
       xlink:href="#linearGradient1080"
       id="linearGradient1129"
       gradientUnits="userSpaceOnUse"
       gradientTransform="matrix(0,0.21933991,0.23208608,0,-4.6402543,151.59778)"
       x1="604.73438"
       y1="196.98997"
       x2="519.32581"
       y2="123.17879" />
    <linearGradient
       inkscape:collect="always"
       id="linearGradient1080">
      <stop
         style="stop-color:#000000;stop-opacity:1;"
         offset="0"
         id="stop1076" />
      <stop
         style="stop-color:#000000;stop-opacity:0;"
         offset="1"
         id="stop1078" />
    </linearGradient>
    <linearGradient
       inkscape:collect="always"
       xlink:href="#linearGradient1080"
       id="linearGradient1131"
       gradientUnits="userSpaceOnUse"
       x1="552.02826"
       y1="143.16246"
       x2="425.92493"
       y2="116.99951"
       gradientTransform="matrix(0,0.26458333,0.26458333,0,-11.315513,128.12927)" />
    <linearGradient
       inkscape:collect="always"
       xlink:href="#linearGradient1080"
       id="linearGradient1090"
       x1="604.73438"
       y1="196.98997"
       x2="519.32581"
       y2="123.17879"
       gradientUnits="userSpaceOnUse"
       gradientTransform="matrix(0.21933992,0,0,0.23208609,-45.389446,192.34698)" />
    <linearGradient
       gradientTransform="matrix(0.26458333,0,0,0.26458333,-68.857963,185.67172)"
       inkscape:collect="always"
       xlink:href="#linearGradient1080"
       id="linearGradient1082"
       x1="552.02826"
       y1="143.16246"
       x2="425.92493"
       y2="116.99951"
       gradientUnits="userSpaceOnUse" />
  </defs>
  <sodipodi:namedview
     id="base"
     pagecolor="#ffffff"
     bordercolor="#666666"
     borderopacity="1.0"
     inkscape:pageopacity="0.0"
     inkscape:pageshadow="2"
     inkscape:zoom="0.7"
     inkscape:cx="-61.964397"
     inkscape:cy="125.04669"
     inkscape:document-units="mm"
     inkscape:current-layer="layer1"
     showgrid="false"
     units="mm"
     width="100mm"
     inkscape:window-width="1680"
     inkscape:window-height="1001"
     inkscape:window-x="0"
     inkscape:window-y="1"
     inkscape:window-maximized="1" />
  <metadata
     id="metadata56">
    <rdf:RDF>
      <cc:Work
         rdf:about="">
        <dc:format>image/svg+xml</dc:format>
        <dc:type
           rdf:resource="http://purl.org/dc/dcmitype/StillImage" />
        <dc:title></dc:title>
      </cc:Work>
    </rdf:RDF>
  </metadata>
  <g
     inkscape:label="Ebene 1"
     inkscape:groupmode="layer"
     id="layer1"
     transform="translate(0,-197)">
    <circle
       style="fill:#ffc610;fill-opacity:1;stroke-width:0.26458332"
       id="path4518"
       cx="59.4319"
       cy="256.45367"
       r="25.135414" />
    <path
       inkscape:connector-curvature="0"
       style="fill:#00000b;fill-opacity:1;stroke-width:0.26458332"
       d="m 59.464953,226.02585 a 30.427086,30.427086 0 0 0 -30.427084,30.42708 30.427086,30.427086 0 0 0 30.427084,30.42708 30.427086,30.427086 0 0 0 30.427083,-30.42708 30.427086,30.427086 0 0 0 -30.427083,-30.42708 z m 0,6.61458 a 23.812498,23.812496 0 0 1 23.8125,23.8125 23.812498,23.812496 0 0 1 -23.8125,23.8125 23.812498,23.812496 0 0 1 -23.8125,-23.8125 23.812498,23.812496 0 0 1 23.8125,-23.8125 z"
       id="path4549" />
    <path
       style="fill:#000000;fill-opacity:1;stroke-width:0.25712878"
       d="m 67.037428,235.30284 a 22.489584,22.489584 0 0 0 -9.465151,-1.24713 l -20.467579,20.46757 a 22.489584,22.489584 0 0 0 0.875519,8.47892 l 22.442601,-22.4426 v 8.35321 6.61461 h 14.966368 l -22.436389,22.43639 a 22.489584,22.489584 0 0 0 8.44712,0.9073 l 20.47087,-20.47086 a 22.489584,22.489584 0 0 0 -1.22851,-9.48744 H 67.037428 Z"
       id="path4673"
       inkscape:connector-curvature="0"
       inkscape:transform-center-y="-0.022040953"
       inkscape:transform-center-x="-0.021670711" />
    <path
       inkscape:connector-curvature="0"
       style="opacity:0.2;fill:#000000;fill-opacity:1;stroke-width:0.25712878"
       d="m 59.464953,231.31751 a 25.135414,25.135418 0 0 0 -25.135417,25.13542 25.135414,25.135418 0 0 0 20.670057,24.72614 l -1.502751,1.50275 a 25.135416,25.135412 45 0 0 7.830013,1.52446 l 3.117122,-3.11713 a 25.135414,25.135418 0 0 0 19.624641,-19.62516 l 3.136243,-3.13624 a 25.135416,25.135412 45 0 0 -0.576191,-4.64519 l -1.011309,-1.01131 v -1.12138 H 84.112544 A 25.135414,25.135418 0 0 0 59.464953,231.31751 Z m 1.532723,4.38837 a 22.279716,22.279716 0 0 1 0.177765,0.009 l -22.45134,22.45083 a 22.279716,22.279716 0 0 1 -0.0062,-0.17984 22.279716,22.279716 0 0 1 22.279776,-22.27977 z m 8.664588,1.75441 a 22.279716,22.279716 0 0 1 12.645221,14.08958 H 69.662264 Z m -6.614583,5.7366 v 8.35298 6.61458 H 78.014207 L 56.40054,279.77812 a 22.279716,22.279716 0 0 1 -16.180408,-13.7542 z m 19.687169,19.60087 a 22.279716,22.279716 0 0 1 -16.909563,16.91008 z"
       id="path4678" />
    <path
       inkscape:connector-curvature="0"
       style="opacity:1;fill:#000000;fill-opacity:1;stroke-width:0.25429764"
       d="m 83.344114,274.71952 -2.806546,2.80603 -2.806547,2.80654 6.080766,3.27371 2.566767,1.38234 0.01035,-0.0109 a 1.1457402,1.1457402 0 0 0 0.680061,0.22531 1.1457402,1.1457402 0 0 0 1.145667,-1.14566 1.1457402,1.1457402 0 0 0 -0.225311,-0.68006 l 0.01085,-0.0104 -1.382345,-2.56677 z"
       id="path847" />
    <path
       inkscape:connector-curvature="0"
       style="opacity:1;fill:#000000;fill-opacity:1;stroke-width:0.26458332"
       d="M 33.006619,216.76543 A 13.229166,13.229166 0 0 0 19.777453,229.9946 13.229166,13.229166 0 0 0 30.74009,243.01499 31.75,31.75 0 0 1 46.037864,227.72083 13.229166,13.229166 0 0 0 33.006619,216.76543 Z"
       id="path867" />
    <path
       inkscape:connector-curvature="0"
       style="opacity:1;fill:#000000;fill-opacity:1;stroke-width:0.28113538"
       d="m 13.162865,228.14251 v 3.70417 h 5.432746 a 14.552083,14.552083 0 0 1 -0.141076,-1.85208 14.552083,14.552083 0 0 1 0.137975,-1.85209 z"
       id="rect902" />
    <path
       inkscape:connector-curvature="0"
       style="opacity:1;fill:#000000;fill-opacity:1;stroke-width:0.26458332"
       d="m 13.882201,224.74841 a 1.7197916,1.7197916 0 0 0 -1.627291,1.17099 21.166666,21.166666 0 0 0 -0.08217,0.3669 1.7197916,1.7197916 0 0 0 -5.29e-4,0.004 h -5.29e-4 a 21.166666,21.166666 0 0 0 -0.331765,3.70416 21.166666,21.166666 0 0 0 0.387057,3.97392 1.7197916,1.7197916 0 0 0 1.655197,1.26814 1.7197916,1.7197916 0 0 0 1.719793,-1.71979 1.7197916,1.7197916 0 0 0 -0.03721,-0.34727 h 0.0088 a 17.727083,17.727083 0 0 1 -0.29404,-3.175 17.727083,17.727083 0 0 1 0.300758,-3.175 h -0.01498 a 1.7197916,1.7197916 0 0 0 0.03669,-0.3514 1.7197916,1.7197916 0 0 0 -1.719793,-1.71979 z"
       id="path907" />
    <path
       id="path982"
       d="m 34.858967,210.15062 h -3.70417 v 5.43274 a 14.552082,14.552082 0 0 1 1.85209,-0.14107 14.552082,14.552082 0 0 1 1.85208,0.13797 z"
       style="opacity:1;fill:#000000;fill-opacity:1;stroke-width:0.28113538"
       inkscape:connector-curvature="0"
       inkscape:transform-center-x="-1.6727864e-05"
       inkscape:transform-center-y="-17.127624" />
    <path
       id="path984"
       d="m 38.253077,210.86996 a 1.7197916,1.7197916 0 0 0 -1.170991,-1.62729 21.166666,21.166666 0 0 0 -0.3669,-0.0822 1.7197916,1.7197916 0 0 0 -0.004,-5.3e-4 v -5.3e-4 a 21.166666,21.166666 0 0 0 -3.704171,-0.33177 21.166666,21.166666 0 0 0 -3.973915,0.38706 1.7197916,1.7197916 0 0 0 -1.26814,1.6552 1.7197916,1.7197916 0 0 0 1.719792,1.71979 1.7197916,1.7197916 0 0 0 0.347265,-0.0372 v 0.009 a 17.727083,17.727083 0 0 1 3.174998,-0.29404 17.727083,17.727083 0 0 1 3.174999,0.30076 v -0.015 a 1.7197916,1.7197916 0 0 0 0.351401,0.0367 1.7197916,1.7197916 0 0 0 1.719789,-1.71979 z"
       style="opacity:1;fill:#000000;fill-opacity:1;stroke-width:0.26458332"
       inkscape:connector-curvature="0"
       inkscape:transform-center-x="-0.0022197279"
       inkscape:transform-center-y="-19.285906" />
    <path
       style="opacity:1;fill:#ffffff;fill-opacity:1;stroke-width:0.26458332"
       d="m 25.862869,227.61335 a 2.3812499,2.3812499 0 0 0 -2.38125,2.38125 2.3812499,2.3812499 0 0 0 2.38125,2.38125 2.3812499,2.3812499 0 0 0 2.108914,-1.27899 4.7624997,4.7624997 0 0 0 -1.722373,-3.44889 2.3812499,2.3812499 0 0 0 -0.386541,-0.0346 z"
       id="path1009"
       inkscape:connector-curvature="0" />
    <path
       style="opacity:0.2;fill:#000000;fill-opacity:1;stroke-width:0.26458332"
       d="m 25.862869,227.61335 a 2.3812498,2.3812498 0 0 0 -2.38125,2.38125 2.3812498,2.3812498 0 0 0 2.38125,2.38125 2.3812498,2.3812498 0 0 0 0.278535,-0.0191 1.8520833,1.8520833 0 0 1 -1.601452,-1.83296 1.8520833,1.8520833 0 0 1 1.852084,-1.85209 1.8520833,1.8520833 0 0 1 0.939477,0.25942 4.7624974,4.7624974 0 0 0 -1.085204,-1.28571 2.3812498,2.3812498 0 0 0 -0.38344,-0.032 z"
       id="path1014"
       inkscape:connector-curvature="0" />
    <path
       id="path1026"
       d="m 30.626669,222.84955 a 2.3812499,2.3812499 0 0 1 2.381248,-2.38125 2.3812499,2.3812499 0 0 1 2.381249,2.38125 2.3812499,2.3812499 0 0 1 -1.278989,2.10891 4.7624997,4.7624997 0 0 1 -3.448878,-1.72237 2.3812499,2.3812499 0 0 1 -0.0346,-0.38654 z"
       style="opacity:1;fill:#ffffff;fill-opacity:1;stroke-width:0.26458332"
       inkscape:connector-curvature="0"
       inkscape:transform-center-x="-0.00096995675"
       inkscape:transform-center-y="-6.75108" />
    <path
       id="path1028"
       d="m 30.626669,222.84955 a 2.3812498,2.3812498 0 0 1 2.381248,-2.38125 2.3812498,2.3812498 0 0 1 2.381249,2.38125 2.3812498,2.3812498 0 0 1 -0.0191,0.27853 1.8520833,1.8520833 0 0 0 -1.832961,-1.60145 1.8520833,1.8520833 0 0 0 -1.852091,1.85208 1.8520833,1.8520833 0 0 0 0.259421,0.93948 4.7624974,4.7624974 0 0 1 -1.285708,-1.0852 2.3812498,2.3812498 0 0 1 -0.032,-0.38344 z"
       style="opacity:0.2;fill:#000000;fill-opacity:1;stroke-width:0.26458332"
       inkscape:connector-curvature="0"
       inkscape:transform-center-x="-0.00096995675"
       inkscape:transform-center-y="-7.0712154" />
    <path
       inkscape:connector-curvature="0"
       style="opacity:0.2;fill:url(#linearGradient1082);fill-opacity:1;stroke:none;stroke-width:2.33959079;stroke-miterlimit:4;stroke-dasharray:none;stroke-opacity:1"
       d="m 67.322355,204.92171 a 13.229166,17.197916 7.2708214 0 0 -14.365533,15.46107 13.229166,17.197916 7.2708214 0 0 -0.05219,5.0431 31.75,31.75 0 0 1 6.560323,-0.72295 31.75,31.75 0 0 1 17.867127,5.50819 13.229166,17.197916 7.2708214 0 0 1.87017,-6.4797 13.229166,17.197916 7.2708214 0 0 -10.946103,-18.73375 13.229166,17.197916 7.2708214 0 0 -0.933792,-0.076 z"
       id="path1040" />
    <path
       inkscape:connector-curvature="0"
       style="opacity:0.2;fill:url(#linearGradient1090);fill-opacity:1;stroke:none;stroke-width:1.77512228;stroke-miterlimit:4;stroke-dasharray:none;stroke-opacity:1"
       d="m 80.631619,219.41126 a 9.9663591,13.141612 34.774579 0 0 -10.365258,5.46065 9.9663591,13.141612 34.774579 0 0 -1.010275,1.39837 31.75,31.75 0 0 1 16.027445,11.77241 9.9663591,13.141612 34.774579 0 0 0.655257,-16.60312 9.9663591,13.141612 34.774579 0 0 -5.307169,-2.02831 z"
       id="ellipse1058" />
    <path
       id="path1125"
       d="m 7.9344687,264.30959 a 13.229166,17.197916 82.729179 0 1 15.4610793,-14.36553 13.229166,17.197916 82.729179 0 1 5.043104,-0.0522 31.75,31.75 0 0 0 -0.722956,6.56032 31.75,31.75 0 0 0 5.508191,17.86712 13.229166,17.197916 82.729179 0 1 -6.479707,1.87018 13.229166,17.197916 82.729179 0 1 -18.7337464,-10.94611 13.229166,17.197916 82.729179 0 1 -0.07596,-0.93379 z"
       style="opacity:0.2;fill:url(#linearGradient1131);fill-opacity:1;stroke:none;stroke-width:2.33959079;stroke-miterlimit:4;stroke-dasharray:none;stroke-opacity:1"
       inkscape:connector-curvature="0"
       inkscape:transform-center-x="38.889388"
       inkscape:transform-center-y="6.6175352" />
    <path
       id="path1127"
       d="m 22.42403,277.61885 a 9.9663591,13.141612 55.225421 0 1 5.460648,-10.36525 9.9663591,13.141612 55.225421 0 1 1.398365,-1.01028 31.75,31.75 0 0 0 11.772405,16.02745 9.9663591,13.141612 55.225421 0 1 -16.603117,0.65525 9.9663591,13.141612 55.225421 0 1 -2.028301,-5.30717 z"
       style="opacity:0.2;fill:url(#linearGradient1129);fill-opacity:1;stroke:none;stroke-width:1.77512228;stroke-miterlimit:4;stroke-dasharray:none;stroke-opacity:1"
       inkscape:connector-curvature="0"
       inkscape:transform-center-x="27.726329"
       inkscape:transform-center-y="19.538671" />
  </g>
</svg>
